<svg xmlns="http://www.w3.org/2000/svg" width="500" height="500" fill="none" viewBox="0 0 500 500">
  <path fill="#263238" d="M55.29 80H41.6a.5.5 0 0 1-.5-.5V65.84a.5.5 0 0 1 .5-.5h13.69a.5.5 0 0 1 .5.5v13.7a.5.5 0 0 1-.5.46ZM42.1 79h12.69V66.34H42.1V79Zm78.9-5.81H60.77a.5.5 0 1 1 0-1H121a.501.501 0 1 1 0 1ZM55.29 99.21H41.6a.5.5 0 0 1-.5-.5V85a.5.5 0 0 1 .5-.5h13.69a.5.5 0 0 1 .5.5v13.7a.5.5 0 0 1-.5.51Zm-13.19-1h12.69v-12.7H42.1v12.7Zm78.9-5.85H60.77a.5.5 0 0 1 0-1H121a.5.5 0 1 1 0 1Zm-65.71 26.02H41.6a.503.503 0 0 1-.5-.5v-13.7a.499.499 0 0 1 .5-.5h13.69a.5.5 0 0 1 .5.5v13.7a.5.5 0 0 1-.5.5Zm-13.19-1h12.69v-12.7H42.1v12.7Zm78.9-5.85H60.77a.503.503 0 0 1-.5-.5.5.5 0 0 1 .5-.5H121c.133 0 .26.053.354.146a.504.504 0 0 1 0 .708.504.504 0 0 1-.354.146Zm-65.71 26.02H41.6a.503.503 0 0 1-.5-.5v-13.7a.497.497 0 0 1 .5-.5h13.69a.5.5 0 0 1 .5.5v13.7a.5.5 0 0 1-.5.5Zm-13.19-1h12.69v-12.7H42.1v12.7Zm78.9-5.85H60.77a.498.498 0 0 1-.354-.853.5.5 0 0 1 .354-.147H121a.5.5 0 0 1 0 1Zm-65.71 26.02H41.6a.503.503 0 0 1-.5-.5v-13.69a.501.501 0 0 1 .5-.5h13.69a.503.503 0 0 1 .5.5v13.69a.5.5 0 0 1-.5.5Zm-13.19-1h12.69V143H42.1v12.72Zm78.9-5.85H60.77a.503.503 0 0 1-.5-.5.498.498 0 0 1 .5-.5H121a.5.5 0 0 1 0 1Zm-65.71 26.02H41.6a.499.499 0 0 1-.5-.5V161.7a.499.499 0 0 1 .5-.5h13.69a.5.5 0 0 1 .5.5v13.69a.5.5 0 0 1-.5.5Zm-13.19-1h12.69V162.2H42.1v12.69ZM121 169H60.77a.503.503 0 0 1-.5-.5.5.5 0 0 1 .5-.5H121c.133 0 .26.053.354.146a.504.504 0 0 1 0 .708.504.504 0 0 1-.354.146Zm317.92 148.38h-9.42a.504.504 0 0 1-.354-.146.504.504 0 0 1-.146-.354v-9.42c0-.133.053-.26.146-.354a.504.504 0 0 1 .354-.146h9.42c.133 0 .26.053.354.146a.504.504 0 0 1 .146.354v9.42c0 .133-.053.26-.146.354a.504.504 0 0 1-.354.146Zm-8.92-1h8.42V308H430v8.38Zm54.13-3.71h-41.45a.504.504 0 0 1-.354-.146.504.504 0 0 1 0-.707.5.5 0 0 1 .354-.147h41.45a.498.498 0 1 1 0 1Zm-45.21 17.9h-9.42a.504.504 0 0 1-.354-.146.504.504 0 0 1-.146-.354v-9.42a.501.501 0 0 1 .5-.5h9.42a.5.5 0 0 1 .5.5v9.42a.513.513 0 0 1-.5.5Zm-8.92-1h8.42v-8.42H430v8.42Zm54.13-3.71h-41.45a.508.508 0 0 1-.5-.5.5.5 0 0 1 .5-.5h41.45c.133 0 .26.053.353.147a.496.496 0 0 1 0 .707.5.5 0 0 1-.353.146Zm-45.21 17.9h-9.42a.504.504 0 0 1-.354-.146.504.504 0 0 1-.146-.354v-9.42a.5.5 0 0 1 .5-.5h9.42a.5.5 0 0 1 .5.5v9.42a.513.513 0 0 1-.5.5Zm-8.92-1h8.42v-8.42H430v8.42Zm54.13-3.71h-41.45a.513.513 0 0 1-.5-.5.5.5 0 0 1 .5-.5h41.45c.133 0 .26.053.353.147a.496.496 0 0 1 0 .707.5.5 0 0 1-.353.146Zm-45.21 17.89h-9.42a.504.504 0 0 1-.354-.146.504.504 0 0 1-.146-.354V347c0-.133.053-.26.146-.354a.504.504 0 0 1 .354-.146h9.42a.513.513 0 0 1 .5.5v9.42a.489.489 0 0 1-.139.367.506.506 0 0 1-.361.153Zm-8.92-1h8.42v-8.42H430v8.42Zm54.13-3.71h-41.45a.504.504 0 0 1-.354-.146.504.504 0 0 1-.146-.354.508.508 0 0 1 .5-.5h41.45a.5.5 0 1 1 0 1Zm-45.21 17.9h-9.42a.504.504 0 0 1-.354-.146.504.504 0 0 1-.146-.354v-9.42c0-.133.053-.26.146-.354a.504.504 0 0 1 .354-.146h9.42a.513.513 0 0 1 .5.5v9.42c0 .133-.053.26-.146.354a.504.504 0 0 1-.354.146Zm-8.92-1h8.42v-8.42H430v8.42Zm54.13-3.71h-41.45a.504.504 0 0 1-.354-.146.504.504 0 0 1-.146-.354.51.51 0 0 1 .5-.5h41.45a.498.498 0 1 1 0 1Zm-45.21 17.9h-9.42a.504.504 0 0 1-.354-.146.504.504 0 0 1-.146-.354v-9.42a.501.501 0 0 1 .5-.5h9.42a.5.5 0 0 1 .5.5v9.42c0 .133-.053.26-.146.354a.504.504 0 0 1-.354.146Zm-8.92-1h8.42v-8.42H430v8.42Zm54.13-3.71h-41.45a.504.504 0 0 1-.354-.146.504.504 0 0 1 0-.707.5.5 0 0 1 .354-.147h41.45c.133 0 .26.053.353.147a.496.496 0 0 1 0 .707.5.5 0 0 1-.353.146Zm-216.9-271.14h-59.3a.504.504 0 0 1-.354-.146.504.504 0 0 1-.146-.354V64.52a.503.503 0 0 1 .5-.5h59.3a.5.5 0 0 1 .5.5V107a.5.5 0 0 1-.5.47Zm-58.8-1h58.3V65h-58.3v41.47Z"/>
  <path fill="#263238" d="M237.58 86.25a.5.5 0 0 1-.29-.09l-29.65-21.23a.502.502 0 0 1-.12-.7.51.51 0 0 1 .7-.11l29.36 21 29.36-21a.503.503 0 0 1 .732.089.5.5 0 0 1-.152.721l-29.65 21.23a.522.522 0 0 1-.29.09ZM308.32 78H272a.501.501 0 0 1-.5-.5v-26a.503.503 0 0 1 .5-.5h36.34a.501.501 0 0 1 .5.5v26a.508.508 0 0 1-.153.36.508.508 0 0 1-.367.14Zm-35.84-1h35.34V52h-35.34v25Z"/>
  <path fill="#263238" d="M290.15 65a.459.459 0 0 1-.29-.1l-18.17-13a.495.495 0 0 1-.206-.325.498.498 0 0 1 .412-.577.51.51 0 0 1 .374.082l17.88 12.8L308 51.1a.51.51 0 0 1 .7.12.494.494 0 0 1 .086.375.495.495 0 0 1-.206.325l-18.17 13a.46.46 0 0 1-.26.08ZM77 427.25H40.7a.513.513 0 0 1-.5-.5v-26a.512.512 0 0 1 .5-.5H77a.503.503 0 0 1 .5.5v26a.5.5 0 0 1-.5.5Zm-35.84-1h35.38v-25H41.2l-.04 25Z"/>
  <path fill="#263238" d="M58.87 414.24a.526.526 0 0 1-.29-.09l-18.17-13a.51.51 0 0 1-.11-.7.502.502 0 0 1 .69-.11l17.88 12.8 17.88-12.8a.513.513 0 0 1 .7.11.496.496 0 0 1 .015.558.498.498 0 0 1-.135.142l-18.17 13a.5.5 0 0 1-.29.09Zm424.72 44.71H19.35v1h464.24v-1ZM17.63 332.22c3.26-.53 9.39-4.69 9.4-4.69.01 0-4-3.21-4.25-3.38-3.21-2-10.57-3.9-13.77-1.16a5.002 5.002 0 0 0 0 7.43c2.18 2.06 5.84 2.25 8.62 1.8Z"/>
  <path fill="#263238" d="M31.41 348.85c2.89-1.32 7.4-6.51 7.76-6.92a88.263 88.263 0 0 0 9.38 7.14c1.9 1.27 3.86 2.5 5.84 3.7-1-.41-1.87-.78-2-.81-3.61-1.06-11.22-1-13.59 2.51a5 5 0 0 0 2 7.16c2.62 1.42 6.21.64 8.76-.53s6.54-5.54 7.56-6.7l2.29 1.36c3.68 2.17 7.35 4.31 10.89 6.52 1.25.78 2.45 1.59 3.66 2.4-.88-.36-1.62-.67-1.74-.7-3.61-1.06-11.22-1-13.59 2.52a5.003 5.003 0 0 0 .37 5.868c.446.541 1.002.98 1.63 1.292 2.62 1.41 6.2.63 8.76-.54 2.56-1.17 6.15-5.11 7.38-6.49 1.21.86 2.42 1.73 3.55 2.62.76.63 1.53 1.18 2.26 1.85l2.16 1.9c1.34 1.28 2.73 2.59 4 3.87.89.89 1.73 1.74 2.57 2.61-1.23-.79-3.68-2.29-3.89-2.39-3.42-1.59-11-2.66-13.82.43a5.002 5.002 0 0 0 .88 7.38c2.38 1.79 6 1.57 8.74.8 3-.85 8-5.1 8.67-5.64 1.4 1.44 2.74 2.85 4 4.19 2.76 3 5.14 5.69 7.12 8l2.33-1.5a259.24 259.24 0 0 0-7.63-8.22c-1.41-1.47-2.94-3-4.53-4.56a55.764 55.764 0 0 0 3.37-5.41c3.08.8 9.21.1 10 0 .37 2 .71 3.88 1 5.69.63 3.79 1.1 7.2 1.46 10.12l2.52-1.62c-.41-2.65-.9-5.65-1.51-8.93-.37-2-.81-4.13-1.27-6.3.75-.29 6.92-2.71 9.09-4.92 2-2 3.92-5.12 3.49-8.07a5.002 5.002 0 0 0-6.06-4.3c-4.09 1-6.75 8.17-7 11.93 0 .22.1 2.64.2 4.17-.19-.89-.37-1.75-.58-2.67-.41-1.8-.87-3.6-1.36-5.52l-.81-2.8c-.25-.94-.64-1.9-1-2.87-.78-2.21-1.68-4.41-2.64-6.62 1.58-.36 7.18-1.72 9.44-3.41 2.26-1.69 4.65-4.47 4.66-7.44a5.002 5.002 0 0 0-5.33-5.18c-4.2.41-7.91 7.05-8.72 10.73 0 .23-.32 2.94-.45 4.43-.58-1.32-1.16-2.64-1.8-3.95-1.83-3.8-3.8-7.58-5.75-11.37-.6-1.16-1.18-2.32-1.77-3.48.56-.12 7.25-1.6 9.79-3.5 2.25-1.68 4.65-4.46 4.66-7.44a4.994 4.994 0 0 0-3.281-4.878 4.993 4.993 0 0 0-2.059-.292c-4.19.41-7.91 7.05-8.71 10.73-.06.28-.46 4.17-.51 5.17-1.29-2.56-2.56-5.12-3.7-7.69a89.078 89.078 0 0 1-4-10.68c.26-.06 7.25-1.57 9.85-3.51 2.25-1.69 4.65-4.47 4.66-7.44a5.004 5.004 0 0 0-3.281-4.878 4.993 4.993 0 0 0-2.059-.292c-4.19.41-7.91 7.05-8.71 10.73-.06.28-.49 4.47-.51 5.24-.06-.21-.15-.42-.21-.64a64.741 64.741 0 0 1-2-11.25c-.21-2.09-.3-4.11-.33-6.08 1.33-.14 7.4-.88 9.93-2.37 2.53-1.49 5.11-3.93 5.45-6.89a5 5 0 0 0-4.74-5.72c-4.21-.06-8.63 6.13-9.84 9.7-.06.2-.51 2.24-.81 3.74v-2.65c0-3.19.27-6.11.5-8.69.14-1.47.3-2.79.46-4 1.23-.83 6.15-4.22 7.68-6.66 1.53-2.44 2.72-5.84 1.66-8.62a5.004 5.004 0 0 0-4.815-3.368c-.7.012-1.39.172-2.025.468-3.77 1.89-4.84 9.42-4.26 13.15 0 .32 1.41 5.26 1.48 5.22l.07-.05c-.18 1.19-.35 2.46-.52 3.86-.29 2.58-.58 5.5-.69 8.7a88.34 88.34 0 0 0 .13 10.35 64.32 64.32 0 0 0 1.79 11.44v.13c-.65-1.05-2.58-3.93-2.75-4.13-2.43-2.88-8.82-7-12.72-5.4a4.993 4.993 0 0 0-2.934 5.093c.073.697.293 1.37.644 1.977 1.4 2.63 4.82 4 7.6 4.39 3.13.49 9.76-1.35 10.29-1.5a88.805 88.805 0 0 0 3.88 11.14c.89 2.11 1.85 4.21 2.84 6.31-.6-.89-1.13-1.68-1.22-1.79-2.43-2.87-8.83-7-12.73-5.39a5.003 5.003 0 0 0-2.87 5.114A5 5 0 0 0 74.1 329c1.41 2.63 4.83 4 7.61 4.4 2.78.4 8.5-1 10-1.43.39.8.76 1.61 1.15 2.41 1.87 3.83 3.76 7.64 5.49 11.44.61 1.34 1.17 2.68 1.72 4-.52-.79-1-1.45-1-1.54-2.44-2.88-8.83-7-12.73-5.4A4.998 4.998 0 0 0 84 350c1.41 2.62 4.83 3.95 7.61 4.39 2.78.44 7.94-.88 9.73-1.35.53 1.38 1.06 2.78 1.51 4.15.29.94.63 1.82.87 2.79l.75 2.81c.41 1.81.85 3.67 1.21 5.44.25 1.24.48 2.41.71 3.6-.6-1.34-1.81-3.94-1.94-4.14a19.387 19.387 0 0 0-7.3-6.52 7.02 7.02 0 0 0-.65-.89 5.004 5.004 0 0 0-5.709-1.408 4.99 4.99 0 0 0-1.721 1.168c-2.84 3.12-1.13 10.53.75 13.8.11.19 1.55 2.15 2.47 3.37-.65-.64-1.28-1.26-2-1.9-1.33-1.29-2.71-2.53-4.18-3.87l-2.22-1.88c-.73-.65-1.58-1.24-2.37-1.87-1.88-1.41-3.84-2.75-5.86-4.06 1.13-1.18 5-5.4 6-8.06s1.42-6.29-.21-8.78a5 5 0 0 0-7.3-1.37c-3.28 2.66-2.72 10.25-1.35 13.76.08.22 1.34 2.63 2.06 3.94-1.22-.78-2.42-1.56-3.68-2.31-3.62-2.15-7.36-4.22-11.07-6.3l-3.4-1.93c.41-.41 5.17-5.33 6.24-8.31 1-2.65 1.41-6.29-.22-8.78a5 5 0 0 0-7.3-1.37c-3.28 2.66-2.71 10.24-1.35 13.75.1.27 1.92 3.73 2.43 4.59-2.49-1.42-5-2.85-7.33-4.37a88.155 88.155 0 0 1-9.23-6.7c.19-.19 5.19-5.31 6.28-8.36.94-2.65 1.41-6.29-.22-8.78a5 5 0 0 0-7.3-1.37c-3.28 2.66-2.71 10.25-1.35 13.76.11.27 2.06 4 2.47 4.65l-.53-.41a64.151 64.151 0 0 1-7.88-8.28c-1.34-1.63-2.52-3.26-3.64-4.88 1-.86 5.69-4.83 7-7.46 1.31-2.63 2.09-6.1.74-8.75a4.99 4.99 0 0 0-3.068-2.663 4.992 4.992 0 0 0-4.032.493c-3.55 2.28-3.82 9.89-2.86 13.53.06.2.81 2.15 1.39 3.56-.5-.73-1-1.48-1.48-2.2-1.72-2.68-3.14-5.25-4.37-7.53-.69-1.3-1.29-2.49-1.84-3.61.57-1.37 2.8-6.91 2.73-9.79-.07-2.88-.95-6.38-3.37-8.11a5.001 5.001 0 0 0-7.31 1.35c-2.09 3.66 1.17 10.54 3.71 13.32.22.24 4.08 3.61 4.11 3.54a.345.345 0 0 0 0-.08c.51 1.09 1.06 2.25 1.7 3.51 1.18 2.31 2.55 4.91 4.22 7.64a87.913 87.913 0 0 0 5.86 8.53 65.673 65.673 0 0 0 7.8 8.55l.11.09c-1.13-.52-4.31-1.86-4.57-1.93-3.62-1.06-11.22-1-13.59 2.52a5.003 5.003 0 0 0 .37 5.869c.446.54 1.002.98 1.63 1.291 2.61 1.41 6.19.61 8.75-.54Z"/>
  <path fill="#263238" d="M81.44 293c.07 0-1.54-4.87-1.68-5.16-1.59-3.42-6.66-9.09-10.85-8.57a4.997 4.997 0 0 0-4.168 4.136c-.113.69-.08 1.397.098 2.074.66 2.91 3.61 5.09 6.17 6.25C74 293.05 81.43 293 81.44 293ZM379.93 72.31c2.25 2.24 8.92 4.68 8.92 4.69 0 .01.27-4.89.25-5.2-.26-3.6-2.89-10.41-6.82-11.37a4.778 4.778 0 0 0-5.76 4.19c-.4 2.83 1.48 5.79 3.41 7.69Z"/>
  <path fill="#263238" d="M374.72 92.36c2.64 1.51 9.21 2.11 9.73 2.15a84.559 84.559 0 0 0-.29 11.31c.07 2.2.22 4.41.39 6.62-.23-1-.44-1.89-.49-2-1.2-3.41-5.53-9.28-9.58-9.17a4.79 4.79 0 0 0-4.45 5.56c.37 2.84 3 5.19 5.33 6.53 2.33 1.34 8 2 9.45 2.12.08.85.14 1.7.22 2.55.38 4.07.77 8.13 1 12.12.1 1.41.14 2.8.18 4.19-.2-.88-.38-1.63-.42-1.74-1.21-3.41-5.54-9.28-9.58-9.16a4.795 4.795 0 0 0-3.47 1.785 4.799 4.799 0 0 0-.99 3.775c.37 2.83 3 5.18 5.33 6.52 2.33 1.34 7.43 1.91 9.19 2.09 0 1.43 0 2.86-.05 4.24-.06.94-.06 1.85-.18 2.8-.12.95-.18 1.86-.28 2.78-.24 1.76-.48 3.58-.76 5.29-.19 1.19-.39 2.32-.59 3.46-.08-1.4-.28-4.14-.33-4.37-.67-3.55-4.06-10-8.08-10.51a4.767 4.767 0 0 0-3.696 1.24 4.763 4.763 0 0 0-1.544 3.58c-.07 2.86 2.16 5.58 4.27 7.26 2.33 1.84 8.48 3.39 9.25 3.58-.34 1.89-.68 3.72-1 5.45-.77 3.81-1.54 7.19-2.24 10l2.47 1c.66-3 1.4-6.52 2.12-10.55.35-1.92.68-4 1-6.08a54.334 54.334 0 0 0 6.1-.41c1.11 2.84 5.09 7.22 5.61 7.78-1.32 1.4-2.62 2.73-3.86 4-2.6 2.61-5 4.89-7.06 6.81l2.67 1c1.84-1.8 3.89-3.87 6.1-6.19 1.35-1.4 2.76-2.93 4.19-4.52.65.43 6 3.88 8.93 4.33 2.67.4 6.18.18 8.23-1.82a4.797 4.797 0 0 0 1.56-3.571 4.791 4.791 0 0 0-1.61-3.549c-3.1-2.6-10.14-.68-13.2 1.25-.18.11-2 1.56-3.13 2.49.58-.65 1.16-1.27 1.75-2 1.18-1.33 2.31-2.69 3.54-4.15l1.72-2.2c.59-.73 1.12-1.56 1.69-2.35 1.29-1.85 2.5-3.78 3.68-5.76 1.16 1 5.36 4.62 7.95 5.43 2.59.81 6.08 1.12 8.4-.54a4.788 4.788 0 0 0 1-7c-2.68-3-9.92-2.21-13.24-.77-.2.09-2.47 1.39-3.69 2.13.69-1.2 1.4-2.38 2.06-3.62 1.93-3.55 3.77-7.21 5.62-10.85.57-1.11 1.14-2.22 1.72-3.32.41.37 5.31 4.75 8.21 5.65 2.57.81 6.08 1.12 8.4-.54a4.788 4.788 0 0 0 1-7c-2.67-3-9.92-2.21-13.23-.77-.25.11-3.5 2-4.31 2.5 1.27-2.44 2.55-4.86 3.91-7.19a86.25 86.25 0 0 1 6.07-9.1c.19.18 5.28 4.77 8.25 5.7 2.58.8 6.08 1.11 8.41-.55a4.788 4.788 0 0 0 1-7c-2.67-3-9.92-2.2-13.24-.76-.26.11-3.75 2.13-4.36 2.54.13-.17.24-.35.38-.52a61.403 61.403 0 0 1 7.62-7.87c1.52-1.34 3-2.54 4.54-3.67.87 1 4.85 5.27 7.42 6.4 2.57 1.13 5.93 1.77 8.42.38a4.802 4.802 0 0 0 1.8-6.9c-2.32-3.31-9.62-3.28-13.07-2.21-.19.06-2 .86-3.37 1.46.69-.5 1.39-1 2.06-1.49 2.51-1.76 4.91-3.21 7.05-4.48 1.22-.72 2.34-1.34 3.39-1.91 1.33.5 6.72 2.42 9.48 2.24 2.76-.18 6.08-1.15 7.65-3.54a4.797 4.797 0 0 0-.081-5.629 4.8 4.8 0 0 0-1.499-1.311c-3.59-1.87-10.05 1.52-12.62 4-.22.22-3.31 4-3.24 4.08h.08c-1 .53-2.11 1.1-3.29 1.76-2.17 1.22-4.61 2.63-7.17 4.34a85.532 85.532 0 0 0-8 5.9 61.736 61.736 0 0 0-7.9 7.8 1.063 1.063 0 0 1-.08.11c.45-1.1 1.61-4.2 1.67-4.45.88-3.51.51-10.79-2.93-12.93a4.793 4.793 0 0 0-5.613.567 4.798 4.798 0 0 0-1.177 1.613c-1.25 2.56-.37 6 .85 8.38 1.38 2.71 6.53 6.84 6.94 7.17a83.956 83.956 0 0 0-6.49 9.26c-1.15 1.87-2.25 3.8-3.32 5.74.36-1 .67-1.82.7-2 .87-3.5.5-10.79-2.93-12.92a4.78 4.78 0 0 0-3.882-.425 4.792 4.792 0 0 0-2.908 2.605c-1.25 2.56-.37 6 .85 8.37 1.22 2.37 5.56 6 6.71 7-.4.75-.82 1.49-1.22 2.25-1.93 3.6-3.84 7.2-5.83 10.68-.7 1.23-1.43 2.41-2.16 3.59.32-.85.58-1.57.61-1.68.87-3.51.5-10.8-2.93-12.93a4.78 4.78 0 0 0-3.881-.425 4.788 4.788 0 0 0-2.909 2.605c-1.25 2.56-.37 6 .85 8.38 1.22 2.38 5.14 5.69 6.5 6.81-.78 1.19-1.56 2.39-2.37 3.51-.58.75-1.08 1.51-1.69 2.24-.61.73-1.19 1.44-1.77 2.16-1.18 1.33-2.38 2.72-3.56 4-.81.89-1.61 1.72-2.4 2.57.71-1.22 2.05-3.62 2.14-3.83a18.564 18.564 0 0 0 1-9.33c.139-.323.25-.658.33-1a4.784 4.784 0 0 0-.675-3.855 4.797 4.797 0 0 0-3.325-2.065c-4-.45-8.83 5-10.32 8.32-.09.2-.8 2.41-1.23 3.81.12-.86.26-1.7.38-2.59.24-1.76.44-3.52.66-5.42.07-.92.15-1.84.22-2.78.07-.94.08-1.92.12-2.89.05-2.25 0-4.54-.12-6.84 1.54.22 7 .9 9.63.15 2.63-.75 5.69-2.43 6.71-5.09a4.77 4.77 0 0 0-.061-3.894 4.78 4.78 0 0 0-2.939-2.556c-3.9-1.06-9.49 3.63-11.46 6.66-.12.19-1.29 2.52-1.91 3.81-.07-1.38-.14-2.76-.27-4.15-.35-4-.83-8.09-1.3-12.15-.14-1.24-.27-2.48-.4-3.72.55.08 7 1 10 .19 2.59-.75 5.68-2.43 6.7-5.09a4.786 4.786 0 0 0-.061-3.894 4.78 4.78 0 0 0-2.939-2.556c-3.91-1.06-9.49 3.63-11.46 6.66-.15.23-1.83 3.59-2.21 4.46-.29-2.73-.56-5.46-.71-8.16a84.817 84.817 0 0 1 0-10.93c.26 0 7 1.06 10 .2 2.6-.75 5.69-2.43 6.71-5.09a4.78 4.78 0 0 0-.066-3.892 4.798 4.798 0 0 0-2.934-2.558c-3.91-1.06-9.5 3.63-11.46 6.66-.16.24-2 3.85-2.24 4.53v-.64a61.874 61.874 0 0 1 2-10.78c.52-2 1.13-3.79 1.76-5.56 1.24.32 6.94 1.72 9.71 1.24 2.77-.48 5.92-1.79 7.23-4.32a4.8 4.8 0 0 0-2.3-6.75c-3.76-1.48-9.83 2.57-12.12 5.37-.13.15-1.22 1.83-2 3.07.3-.8.59-1.62.89-2.38 1.12-2.85 2.32-5.39 3.4-7.62.63-1.27 1.22-2.41 1.78-3.46 1.39-.33 6.95-1.69 9.15-3.37 2.2-1.68 4.43-4.31 4.42-7.16a4.786 4.786 0 0 0-3.172-4.663 4.792 4.792 0 0 0-1.978-.267c-4 .42-7.54 6.81-8.29 10.35-.06.3-.52 5.2-.45 5.18h.09c-.57 1-1.16 2.09-1.78 3.29-1.13 2.22-2.39 4.74-3.58 7.57a86.406 86.406 0 0 0-3.4 9.32A63.304 63.304 0 0 0 384.49 94a.565.565 0 0 1 0 .13c-.23-1.16-1-4.39-1.06-4.64-1.2-3.4-5.53-9.28-9.58-9.16a4.795 4.795 0 0 0-4.358 3.57 4.79 4.79 0 0 0-.092 1.99c.36 2.78 2.97 5.11 5.32 6.47Z"/>
  <path fill="#263238" d="M446.25 100c0 .06 2.92-3.92 3.07-4.2 1.77-3.15 3.34-10.27.59-13.24a4.797 4.797 0 0 0-3.629-1.433 4.788 4.788 0 0 0-3.491 1.743c-1.89 2.14-1.94 5.66-1.4 8.31.61 3.06 4.85 8.82 4.86 8.82Zm-27.03 110.12c1.12 2.34 5.6 6 5.6 6s1.54-3.69 1.61-3.94c.77-2.84.6-8.8-2.17-10.61a3.903 3.903 0 0 0-3.161-.415 3.909 3.909 0 0 0-2.419 2.075c-1.07 2.11-.41 4.9.54 6.89Z"/>
  <path fill="#263238" d="M409.76 224.15c1.63 1.88 6.53 4.12 6.92 4.3a70.362 70.362 0 0 0-3.3 8.63c-.53 1.71-1 3.46-1.49 5.21.09-.83.17-1.58.17-1.68 0-3-1.75-8.65-4.89-9.66a3.893 3.893 0 0 0-3.157.43 3.902 3.902 0 0 0-1.783 2.64c-.49 2.28.89 4.81 2.33 6.47 1.44 1.66 5.61 3.69 6.71 4.2-.17.68-.35 1.35-.52 2-.82 3.24-1.62 6.47-2.5 9.62-.31 1.11-.65 2.19-1 3.28.09-.74.15-1.37.15-1.46 0-3-1.75-8.65-4.89-9.66a3.893 3.893 0 0 0-3.157.43 3.902 3.902 0 0 0-1.783 2.64c-.49 2.29.89 4.81 2.33 6.47 1.44 1.66 5.2 3.49 6.51 4.11-.38 1.1-.77 2.2-1.19 3.25-.3.71-.55 1.41-.89 2.11-.34.7-.65 1.38-1 2.06-.67 1.29-1.35 2.63-2 3.87-.47.87-.93 1.69-1.39 2.51.32-1.1.9-3.27.93-3.45.45-2.92-.41-8.82-3.37-10.29a3.91 3.91 0 0 0-5.35 2.29c-.83 2.18.15 4.88 1.33 6.75 1.29 2.05 5.6 4.92 6.15 5.27-.77 1.36-1.54 2.68-2.27 3.92-1.63 2.72-3.14 5.11-4.45 7.12l1.64 1.41c1.31-2.1 2.85-4.64 4.5-7.55.79-1.38 1.6-2.87 2.42-4.41a44.75 44.75 0 0 0 4.81 1.34c.08 2.49 2 6.95 2.21 7.52-1.39.71-2.76 1.39-4.05 2-2.71 1.31-5.17 2.42-7.29 3.34l1.77 1.53c1.91-.89 4.06-1.92 6.39-3.11 1.42-.72 2.92-1.51 4.45-2.35.39.51 3.56 4.61 5.71 5.76 1.94 1 4.71 1.81 6.83.83a3.9 3.9 0 0 0 1.89-5.5c-1.68-2.84-7.63-3.27-10.5-2.62-.17 0-2 .66-3.09 1.08l1.87-1c1.27-.71 2.51-1.45 3.86-2.24l1.92-1.23c.65-.4 1.29-.9 1.94-1.35a87.27 87.27 0 0 0 4.4-3.44c.62 1.11 2.87 5 4.65 6.34 1.78 1.34 4.38 2.51 6.62 1.86a3.902 3.902 0 0 0 2.71-5.15c-1.23-3.07-7.05-4.39-10-4.18-.18 0-2.28.4-3.42.63.86-.73 1.72-1.45 2.57-2.22 2.45-2.21 4.86-4.53 7.27-6.84l2.23-2.09c.21.39 2.8 5.1 4.79 6.58 1.76 1.32 4.38 2.51 6.62 1.86a3.907 3.907 0 0 0 2.945-3.538 3.9 3.9 0 0 0-.235-1.612c-1.24-3.06-7.05-4.39-10-4.18-.22 0-3.24.58-4 .76 1.64-1.54 3.29-3 5-4.48a69.228 69.228 0 0 1 7.14-5.36c.1.18 2.78 5.1 4.81 6.62 1.77 1.32 4.38 2.51 6.63 1.86a3.913 3.913 0 0 0 2.937-3.54 3.924 3.924 0 0 0-.237-1.61c-1.23-3.06-7-4.39-10-4.18-.24 0-3.48.62-4.06.78l.43-.3a50.334 50.334 0 0 1 8-4c1.53-.62 3-1.13 4.49-1.59.41 1 2.3 5.37 4 6.94 1.7 1.57 4.08 3 6.38 2.58a3.916 3.916 0 0 0 2.705-1.689 3.913 3.913 0 0 0 .555-3.141c-.89-3.18-6.52-5.13-9.47-5.25-.16 0-1.8.11-3 .21l2-.59c2.41-.67 4.65-1.14 6.64-1.54 1.14-.22 2.17-.39 3.13-.54.9.74 4.53 3.69 6.7 4.29 2.17.6 5 .77 6.85-.65a3.905 3.905 0 0 0 1.474-4.362 3.899 3.899 0 0 0-.804-1.418c-2.25-2.41-8.15-1.56-10.82-.3-.23.11-3.65 2.22-3.6 2.26-.93.13-1.93.27-3 .46-2 .35-4.27.78-6.7 1.4a70.093 70.093 0 0 0-7.75 2.38 51.843 51.843 0 0 0-8.2 3.87l-.09.06c.65-.72 2.38-2.8 2.5-3 1.62-2.47 3.31-8.18 1.25-10.76a3.912 3.912 0 0 0-5.82-.16c-1.67 1.63-1.91 4.5-1.62 6.68.32 2.47 3.17 7 3.39 7.41a70.491 70.491 0 0 0-7.51 5.37 120.462 120.462 0 0 0-4.12 3.53l1.08-1.31c1.62-2.47 3.31-8.18 1.24-10.76a3.905 3.905 0 0 0-4.47-1.083c-.506.21-.963.525-1.34.923-1.67 1.63-1.91 4.5-1.63 6.68.28 2.18 2.64 6.17 3.28 7.21l-1.55 1.4c-2.47 2.25-4.92 4.51-7.39 6.65-.87.75-1.76 1.46-2.64 2.18.48-.57.87-1.06.93-1.14 1.62-2.46 3.31-8.17 1.24-10.75a3.904 3.904 0 0 0-4.478-1.087 3.9 3.9 0 0 0-1.342.927c-1.66 1.63-1.9 4.5-1.62 6.68.28 2.18 2.42 5.78 3.17 7-.93.7-1.86 1.41-2.79 2.05-.64.43-1.23.88-1.9 1.27l-1.95 1.19c-1.27.7-2.58 1.44-3.83 2.1-.87.47-1.7.9-2.54 1.33.87-.74 2.56-2.23 2.68-2.37a15.163 15.163 0 0 0 3.29-6.92c.195-.213.369-.444.52-.69a3.906 3.906 0 0 0-.192-4.603 3.904 3.904 0 0 0-1.258-1.037c-3-1.44-8.17 1.48-10.21 3.61-.12.13-1.28 1.64-2 2.61.33-.64.66-1.24 1-1.9.67-1.29 1.3-2.59 2-4l.93-2.09c.32-.69.58-1.46.87-2.19.65-1.72 1.23-3.5 1.77-5.3 1.13.58 5.17 2.6 7.38 2.72 2.21.12 5-.32 6.55-2.1a3.913 3.913 0 0 0 .505-4.575 3.898 3.898 0 0 0-1.085-1.215c-2.73-1.88-8.3.22-10.64 2-.15.12-1.68 1.6-2.51 2.42.32-1.08.64-2.16.92-3.27.82-3.2 1.55-6.46 2.3-9.71.22-1 .46-2 .7-3 .4.21 5.15 2.71 7.62 2.85 2.2.13 5-.32 6.55-2.1a3.917 3.917 0 0 0-.58-5.79c-2.72-1.88-8.3.22-10.64 2-.17.14-2.38 2.27-2.91 2.84.52-2.19 1.05-4.36 1.67-6.48a66.811 66.811 0 0 1 3-8.41c.18.1 5.13 2.72 7.67 2.87 2.2.13 5-.32 6.55-2.1a3.92 3.92 0 0 0 .997-3.027 3.919 3.919 0 0 0-1.587-2.763c-2.72-1.88-8.3.22-10.63 2-.19.14-2.56 2.44-3 2.88.07-.15.13-.33.2-.48a50.368 50.368 0 0 1 4.48-7.75c.93-1.37 1.9-2.62 2.87-3.81.87.58 4.88 3.21 7.15 3.59 2.27.38 5 .23 6.74-1.37a3.906 3.906 0 0 0 1.323-2.899 3.91 3.91 0 0 0-1.273-2.921c-2.49-2.16-8.27-.69-10.79.84-.14.09-1.44 1.09-2.38 1.83.45-.53.9-1.09 1.33-1.59 1.64-1.89 3.26-3.52 4.7-4.95.82-.81 1.59-1.53 2.31-2.19 1.15.13 5.81.59 8-.11 2.19-.7 4.58-2.12 5.35-4.32a3.916 3.916 0 0 0-1.183-4.446 3.912 3.912 0 0 0-1.447-.744c-3.22-.77-7.66 3.2-9.2 5.72-.13.22-1.81 3.87-1.75 3.87h.07c-.71.62-1.46 1.3-2.26 2.05-1.48 1.4-3.13 3-4.81 4.86a69.968 69.968 0 0 0-5.15 6.26 51.155 51.155 0 0 0-4.71 7.76v.1c.14-1 .44-3.65.44-3.86 0-3-1.74-8.65-4.89-9.66a3.893 3.893 0 0 0-3.157.43 3.902 3.902 0 0 0-1.783 2.64c-.49 2.53.89 5.02 2.33 6.68Z"/>
  <path fill="#263238" d="M462.81 249.42c0 .05 3.32-2.23 3.51-2.4 2.22-2 5.36-7 4-10.05a3.9 3.9 0 0 0-2.404-2.083 3.916 3.916 0 0 0-3.156.393c-2 1.14-3 3.84-3.33 6-.32 2.58 1.38 8.13 1.38 8.14Zm-43.13-120.78H93.32v312.72h326.36V128.64Z"/>
  <path fill="#263238" d="M419.68 441.86H93.32a.5.5 0 0 1-.5-.5V128.64a.5.5 0 0 1 .5-.5h326.36a.5.5 0 0 1 .5.5v312.72a.498.498 0 0 1-.5.5Zm-325.86-1h325.36V129.14H93.82v311.72Z"/>
  <path fill="#fff" d="M425.1 124.43H98.74v312.72H425.1V124.43Z"/>
  <path fill="#263238" d="M425.1 437.65H98.74a.5.5 0 0 1-.5-.5V124.43a.501.501 0 0 1 .5-.5H425.1c.133 0 .26.053.354.146a.504.504 0 0 1 .146.354v312.72a.514.514 0 0 1-.149.351.514.514 0 0 1-.351.149Zm-325.86-1H424.6V124.93H99.24v311.72Z"/>
  <path fill="#263238" d="M259.06 421.05a.513.513 0 0 1-.5-.5v-281a.51.51 0 0 1 .5-.5.5.5 0 0 1 .5.5v281a.5.5 0 0 1-.5.5Z"/>
  <path fill="#000" d="M297.91 183.1h-21.28v9.67h21.28v-9.67Zm11.9-12.02h-21.28v9.67h21.28v-9.67Zm12.95 12.02h-21.28v9.67h21.28v-9.67Zm37.04-33.28h-21.28v9.67h21.28v-9.67Zm11.9-12.03h-21.28v9.67h21.28v-9.67Zm12.95 12.03h-21.28v9.67h21.28v-9.67Zm-61.89 64.15h-21.28v9.67h21.28v-9.67Zm11.9-12.03h-21.28v9.67h21.28v-9.67Zm12.95 12.03h-21.28v9.67h21.28v-9.67Zm41.69 90.99h-21.28v9.67h21.28v-9.67Zm11.9-12.03h-21.28v9.67h21.28v-9.67Zm12.95 12.03h-21.28v9.67h21.28v-9.67ZM389.3 405.17h-21.28v9.67h21.28v-9.67Zm11.9-12.03h-21.28v9.67h21.28v-9.67Zm12.95 12.03h-21.28v9.67h21.28v-9.67ZM303.52 327h-21.28v9.67h21.28V327Zm11.9-12.02h-21.28v9.67h21.28v-9.67ZM328.37 327h-21.28v9.67h21.28V327Zm-24.85 34.88h-21.28v9.67h21.28v-9.67Zm11.9-12.03h-21.28v9.67h21.28v-9.67Zm12.95 12.03h-21.28v9.67h21.28v-9.67Zm25.25 0h-21.28v9.67h21.28v-9.67Zm11.9-12.03h-21.28v9.67h21.28v-9.67Zm12.95 12.03h-21.28v9.67h21.28v-9.67Z" opacity=".2"/>
  <path fill="#fff" d="M233.17 262.5H126.48v18.09h106.69V262.5Z"/>
  <path fill="#263238" d="M233.17 281.09H126.5a.504.504 0 0 1-.354-.146.504.504 0 0 1-.146-.354V262.5c0-.133.053-.26.146-.354a.504.504 0 0 1 .354-.146h106.67c.133 0 .26.053.354.146a.504.504 0 0 1 .146.354v18.09c0 .133-.053.26-.146.354a.504.504 0 0 1-.354.146Zm-106.19-1h105.69V263H126.98v17.09Z"/>
  <path fill="#fff" d="M233.17 296.19H126.48v18.09h106.69v-18.09Z"/>
  <path fill="#263238" d="M233.17 314.83H126.5a.504.504 0 0 1-.354-.146.504.504 0 0 1-.146-.354v-18.14c0-.133.053-.26.146-.354a.504.504 0 0 1 .354-.146h106.67c.133 0 .26.053.354.146a.504.504 0 0 1 .146.354v18.09a.501.501 0 0 1-.5.55Zm-106.19-1h105.69v-17.14H126.98v17.14Zm82.44 25.85h-59.18a4.84 4.84 0 0 0-4.84 4.84v11.78a4.84 4.84 0 0 0 4.84 4.84h59.18a4.84 4.84 0 0 0 4.84-4.84v-11.78a4.84 4.84 0 0 0-4.84-4.84Z"/>
  <path fill="#263238" d="M209.41 361.63h-59.17a5.343 5.343 0 0 1-5.34-5.34v-11.77a5.342 5.342 0 0 1 5.34-5.34h59.17c1.417 0 2.776.562 3.78 1.563a5.354 5.354 0 0 1 1.57 3.777v11.77a5.35 5.35 0 0 1-5.35 5.34Zm-59.17-21.45a4.34 4.34 0 0 0-4.34 4.34v11.77a4.34 4.34 0 0 0 4.34 4.34h59.17a4.338 4.338 0 0 0 4.019-2.677 4.351 4.351 0 0 0 .331-1.663v-11.77a4.347 4.347 0 0 0-4.35-4.34h-59.17Z"/>
  <path fill="#CCC" d="M162.5 276.16a2.227 2.227 0 0 1-1.34-.35 1.695 1.695 0 0 1-.63-1 5.827 5.827 0 0 1-.17-1.47v-5.31h1.14v5.36c-.003.315.02.629.07.94.034.248.138.48.3.67a1 1 0 0 0 .7.25.923.923 0 0 0 .7-.25c.162-.19.267-.422.3-.67.045-.311.069-.625.07-.94v-5.36h1v5.31a5.374 5.374 0 0 1-.14 1.49 1.728 1.728 0 0 1-.62 1c-.411.26-.896.376-1.38.33Zm5.22 0a2.07 2.07 0 0 1-1.15-.3 1.918 1.918 0 0 1-.69-.82 3.398 3.398 0 0 1-.28-1.22l1-.26c.018.277.062.551.13.82.056.239.173.46.34.64a.871.871 0 0 0 .66.26.838.838 0 0 0 .66-.25 1 1 0 0 0 .22-.69 1.476 1.476 0 0 0-.24-.88c-.189-.239-.4-.46-.63-.66l-1.34-1.19a2.238 2.238 0 0 1-.58-.75 2.4 2.4 0 0 1-.19-1 1.824 1.824 0 0 1 .5-1.36 1.928 1.928 0 0 1 1.38-.48c.281-.004.561.036.83.12.23.077.439.207.61.38a1.8 1.8 0 0 1 .38.65c.106.293.17.599.19.91l-.95.26a3.832 3.832 0 0 0-.11-.73 1.066 1.066 0 0 0-.32-.53.87.87 0 0 0-.63-.2.903.903 0 0 0-.65.22.862.862 0 0 0-.23.65c-.008.21.033.419.12.61.105.182.24.344.4.48l1.36 1.19c.313.271.582.588.8.94.235.392.353.843.34 1.3.005.35-.081.694-.25 1-.154.281-.387.51-.67.66-.313.158-.66.237-1.01.23Zm2.78-.09v-8h3.1v.83h-2v2.65h1.61v.79h-1.61v2.94h2v.8l-3.1-.01Zm4 0v-8h1.61c.453-.012.905.063 1.33.22.33.127.603.368.77.68.184.383.27.806.25 1.23.005.283-.029.566-.1.84-.054.237-.16.459-.31.65-.154.174-.35.305-.57.38l1.13 4h-1.08l-1-3.76h-.87v3.76h-1.16Zm1.12-4.56h.42c.262.011.524-.03.77-.12a.736.736 0 0 0 .261-.155.735.735 0 0 0 .179-.245c.103-.254.151-.526.14-.8a1.567 1.567 0 0 0-.26-1 1.277 1.277 0 0 0-1-.32h-.49l-.02 2.64Zm4.04 4.56v-8h.76l2.27 5.32v-5.32h.93v8h-.71l-2.3-5.47v5.47h-.95Zm4.78 0 1.7-8h1.08l1.71 8h-1.06l-.37-2h-1.63l-.38 2h-1.05Zm1.58-2.82h1.34l-.68-3.6-.66 3.6Zm3.7 2.82.14-8h1.1l1.41 6.5 1.43-6.5h1.08l.15 8h-.9l-.09-5.81-1.35 5.81h-.63l-1.35-5.81-.08 5.81h-.91Zm6.54 0v-8h3.1v.83h-2v2.65h1.61v.79h-1.61v2.94h2v.8l-3.1-.01Zm-36.56 33.1v-8h2c.4-.018.797.072 1.15.26.289.176.51.444.63.76.14.381.208.784.2 1.19a2.48 2.48 0 0 1-.22 1.1 1.642 1.642 0 0 1-.66.72 2.12 2.12 0 0 1-1.09.25h-.88v3.72h-1.13Zm1.11-4.52h.52c.258.008.515-.029.76-.11a.705.705 0 0 0 .39-.38c.09-.246.131-.508.12-.77a3.795 3.795 0 0 0-.08-.87.624.624 0 0 0-.35-.43 2.168 2.168 0 0 0-.83-.12h-.53v2.68Zm2.82 4.52 1.7-8h1.08l1.71 8h-1.06l-.37-2h-1.63l-.38 2h-1.05Zm1.58-2.81h1.29l-.67-3.61-.62 3.61Zm5.6 2.9a2.166 2.166 0 0 1-1.15-.29 1.872 1.872 0 0 1-.7-.82 3.46 3.46 0 0 1-.27-1.22l1-.26c.018.277.062.551.13.82.058.238.175.459.34.64a1 1 0 0 0 1.32 0c.157-.194.235-.441.22-.69a1.394 1.394 0 0 0-.25-.88 4.682 4.682 0 0 0-.62-.67l-1.33-1.17a2.184 2.184 0 0 1-.58-.76 2.336 2.336 0 0 1-.19-1 1.796 1.796 0 0 1 .5-1.36 1.896 1.896 0 0 1 1.38-.49c.282-.006.563.038.83.13.229.075.435.205.6.38.171.186.303.403.39.64.101.298.165.607.19.92l-.95.25a3.826 3.826 0 0 0-.12-.72 1.119 1.119 0 0 0-.31-.54 1.085 1.085 0 0 0-1.28 0 .858.858 0 0 0-.23.66c-.008.207.033.412.12.6.101.187.237.353.4.49l1.35 1.18c.317.29.587.627.8 1 .239.391.361.842.35 1.3a2.01 2.01 0 0 1-.25 1 1.7 1.7 0 0 1-.67.66 2.147 2.147 0 0 1-1.02.2Zm4.69 0a2.173 2.173 0 0 1-1.16-.29 1.924 1.924 0 0 1-.69-.82 3.468 3.468 0 0 1-.28-1.22l1-.26c.018.277.062.551.13.82.062.237.178.456.34.64a.873.873 0 0 0 .67.25.84.84 0 0 0 .65-.24c.157-.194.235-.441.22-.69a1.46 1.46 0 0 0-.24-.88 5.317 5.317 0 0 0-.62-.67l-1.35-1.18a2.184 2.184 0 0 1-.58-.76 2.336 2.336 0 0 1-.19-1 1.802 1.802 0 0 1 .5-1.36 1.896 1.896 0 0 1 1.38-.49c.282-.006.563.038.83.13.23.077.439.207.61.38.171.184.3.402.38.64.106.296.17.606.19.92l-1 .25a3.192 3.192 0 0 0-.11-.72 1.203 1.203 0 0 0-.31-.54 1.002 1.002 0 0 0-.64-.2.938.938 0 0 0-.65.22.91.91 0 0 0-.23.66c-.008.207.033.412.12.6.105.185.24.351.4.49l1.36 1.18c.314.292.584.629.8 1 .236.392.354.843.34 1.3.005.348-.078.692-.24 1a1.788 1.788 0 0 1-.68.66 2.127 2.127 0 0 1-.95.18Zm3.81-.09-1.31-8h.93l.86 5.75 1.08-5.72h.79l1.09 5.75.84-5.78h.91l-1.29 8h-.81l-1.12-5.92-1.12 5.92h-.85Zm8.13.09a2.322 2.322 0 0 1-1.29-.31 1.737 1.737 0 0 1-.7-.91 4.36 4.36 0 0 1-.2-1.37v-3c-.01-.462.061-.923.21-1.36a1.71 1.71 0 0 1 .69-.87 2.41 2.41 0 0 1 1.29-.3c.448-.021.892.087 1.28.31.323.203.566.51.69.87.15.434.222.891.21 1.35v3c.01.465-.061.929-.21 1.37a1.75 1.75 0 0 1-.69.9 2.193 2.193 0 0 1-1.28.32Zm0-.88c.237.018.474-.046.67-.18a.94.94 0 0 0 .31-.51c.056-.256.082-.518.08-.78v-3.5a3.38 3.38 0 0 0-.08-.77.848.848 0 0 0-.31-.49 1.049 1.049 0 0 0-.67-.18 1.1 1.1 0 0 0-.68.18.808.808 0 0 0-.31.49 3.38 3.38 0 0 0-.08.77v3.5c-.002.262.024.524.08.78a.89.89 0 0 0 .31.51 1.1 1.1 0 0 0 .68.18Zm3.28.79v-8h1.61c.449-.013.897.058 1.32.21.334.13.61.375.78.69.184.383.27.806.25 1.23.005.283-.029.566-.1.84-.054.234-.16.453-.31.64-.153.18-.354.312-.58.38l1.14 4h-1.08l-1-3.75h-.87v3.75l-1.16.01Zm1.12-4.55h.42a2.08 2.08 0 0 0 .77-.12.814.814 0 0 0 .44-.4c.099-.254.144-.527.13-.8a1.632 1.632 0 0 0-.25-1 1.319 1.319 0 0 0-1-.31h-.49l-.02 2.63Zm4.01 4.55v-8h1.74c.482-.024.962.069 1.4.27.338.174.602.465.74.82.164.431.242.889.23 1.35v3a4 4 0 0 1-.23 1.43 1.623 1.623 0 0 1-.72.88 2.58 2.58 0 0 1-1.34.3l-1.82-.05Zm1.11-.8h.64c.305.031.611-.05.86-.23a1.07 1.07 0 0 0 .32-.69c0-.31.05-.67.05-1.1v-2.6a5.493 5.493 0 0 0-.08-1 .869.869 0 0 0-.34-.56 1.535 1.535 0 0 0-.84-.18h-.61v6.36Z"/>
  <path fill="#FFD050" d="M159.37 356.75a3.856 3.856 0 0 1-1.86-.41 2.627 2.627 0 0 1-1.13-1.24 5.66 5.66 0 0 1-.44-2.12l2.12-.35c.01.417.061.832.15 1.24.061.28.195.539.39.75a.937.937 0 0 0 .65.25.684.684 0 0 0 .65-.3c.119-.21.178-.449.17-.69a2.184 2.184 0 0 0-.36-1.28 6.477 6.477 0 0 0-1-1l-1.21-1.12a5.153 5.153 0 0 1-1.1-1.29 3.409 3.409 0 0 1-.42-1.76 2.944 2.944 0 0 1 .87-2.29 3.428 3.428 0 0 1 2.4-.8 3.271 3.271 0 0 1 1.49.3c.369.178.68.455.9.8.221.33.374.701.45 1.09.087.385.141.776.16 1.17l-2.11.31c0-.37 0-.69-.09-1a1.438 1.438 0 0 0-.27-.66.809.809 0 0 0-.28-.181.806.806 0 0 0-.33-.049.705.705 0 0 0-.64.32c-.14.21-.213.458-.21.71-.002.354.098.702.29 1 .236.314.504.602.8.86l1.23 1.07c.501.437.938.942 1.3 1.5.385.627.576 1.354.55 2.09a3.001 3.001 0 0 1-.39 1.53 2.802 2.802 0 0 1-1.08 1.08 3.31 3.31 0 0 1-1.65.47Zm4.24-.17v-12.09h2.45v12.09h-2.45Zm7.39.18a3.304 3.304 0 0 1-1.94-.51 2.77 2.77 0 0 1-1-1.47 7.251 7.251 0 0 1-.31-2.2v-4.05a7.02 7.02 0 0 1 .32-2.23 2.682 2.682 0 0 1 1.09-1.45 3.9 3.9 0 0 1 2.13-.51 4.099 4.099 0 0 1 2 .43 2.46 2.46 0 0 1 1.09 1.23c.234.598.346 1.238.33 1.88v.7h-2.41v-.85a5.375 5.375 0 0 0-.06-.85 1 1 0 0 0-.27-.57.997.997 0 0 0-.7-.21 1 1 0 0 0-.72.25c-.15.187-.247.412-.28.65a5.756 5.756 0 0 0-.06.85v5.36c-.003.306.027.611.09.91.043.241.162.462.34.63a1.208 1.208 0 0 0 1.42 0 1.24 1.24 0 0 0 .35-.65c.072-.305.106-.617.1-.93v-1.34h-1.18v-1.49h3.41v6.21h-1.62l-.15-1.09a2.188 2.188 0 0 1-.71.91 2.097 2.097 0 0 1-1.26.39Zm5.5-.18v-12.09h1.72l2.69 6.3v-6.3h2v12.09h-1.64l-2.69-6.69v6.69h-2.08Zm15.36.17a4.046 4.046 0 0 1-2.13-.47 2.506 2.506 0 0 1-1.07-1.36 6.515 6.515 0 0 1-.31-2.16v-8.27h2.44v8.61c-.001.294.019.588.06.88.036.259.139.504.3.71a1.107 1.107 0 0 0 1.43 0c.168-.202.273-.449.3-.71.041-.292.061-.586.06-.88v-8.61h2.43v8.27a6.515 6.515 0 0 1-.31 2.16 2.541 2.541 0 0 1-1.06 1.36 4.123 4.123 0 0 1-2.14.47Zm5.23-.17v-12.09h3.83a3.47 3.47 0 0 1 1.78.41c.454.277.805.695 1 1.19.244.596.36 1.236.34 1.88a4 4 0 0 1-.44 2 2.44 2.44 0 0 1-1.2 1 4.55 4.55 0 0 1-1.75.31h-1.12v5.24l-2.44.06Zm2.46-7h.87c.283.014.566-.045.82-.17a.87.87 0 0 0 .4-.55c.079-.31.116-.63.11-.95a4.042 4.042 0 0 0-.09-.93.907.907 0 0 0-.36-.58 1.535 1.535 0 0 0-.9-.21h-.85v3.39Zm8.51-179.75h-60.12v39.96h60.12v-39.96Z"/>
  <path fill="#263238" d="M208.06 210.29h-60.12a.504.504 0 0 1-.354-.146.504.504 0 0 1-.146-.354v-40c0-.133.053-.26.146-.354a.504.504 0 0 1 .354-.146h60.12a.5.5 0 0 1 .5.5v40a.5.5 0 0 1-.5.5Zm-59.62-1h59.12v-39h-59.12v39Z"/>
  <path fill="#263238" d="M208.06 169.83 178 189.81l-30.06-19.98h60.12Z"/>
  <path fill="#263238" d="M178 190.31a.564.564 0 0 1-.28-.08l-30.06-20a.508.508 0 0 1-.2-.56.501.501 0 0 1 .48-.35h60.12a.497.497 0 0 1 .28.91l-30.06 20a.564.564 0 0 1-.28.08Zm-28.41-20 28.41 18.9 28.4-18.88-56.81-.02Z"/>
  <path fill="#fff" d="M155.91 175.35v-25.82h44.12v25.61L178 189.81l-22.09-14.46Z"/>
  <path fill="#263238" d="M178 190.31a.575.575 0 0 1-.28-.08l-22.08-14.46a.518.518 0 0 1-.23-.42v-25.82c0-.133.053-.26.146-.354a.504.504 0 0 1 .354-.146H200a.5.5 0 0 1 .5.5v25.61a.506.506 0 0 1-.22.42l-22 14.67a.575.575 0 0 1-.28.08Zm-21.59-15.23L178 189.21l21.53-14.33V150h-43.12v25.08Z"/>
  <path fill="#263238" d="M190.88 159h-26.63a.504.504 0 0 1-.354-.146.504.504 0 0 1 0-.708.504.504 0 0 1 .354-.146h26.63c.133 0 .26.053.354.146a.504.504 0 0 1 0 .708.504.504 0 0 1-.354.146Zm0 6.68h-26.63a.5.5 0 0 1 0-1h26.63c.133 0 .26.053.354.146a.504.504 0 0 1 0 .707.5.5 0 0 1-.354.147Zm0 6.71h-26.63a.504.504 0 0 1-.354-.146.504.504 0 0 1 0-.707.5.5 0 0 1 .354-.147h26.63a.5.5 0 0 1 0 1Z"/>
  <path fill="#FFD050" d="m147.94 209.79 30.13-25.09 29.99 25.09h-60.12Z"/>
  <path fill="#263238" d="M208.06 210.29h-60.12a.498.498 0 0 1-.479-.627.501.501 0 0 1 .159-.253l30.13-25.1a.5.5 0 0 1 .64 0l30 25.09a.497.497 0 0 1-.32.88l-.01.01Zm-58.74-1h57.36l-28.61-23.94-28.75 23.94Z"/>
  <path fill="#fff" d="M325.68 287s-3.29 17.94-3.79 23.25c-.5 5.31-1 26.91 2.78 41.56a137.61 137.61 0 0 0 9.33 25.53s2.52 10.36 4 13.14c1.48 2.78 14.15 24.26 14.15 24.26s-.76 8.84-1.26 10.36c-.5 1.52-2.28 10.86-1.77 13.64.51 2.78 1.26 4.55.5 8.09s-1.77 7.07 0 10.11c1.77 3.04 6.07 3.28 7.33 1.51a13.763 13.763 0 0 0 2.78-10.36c-.76-5-3.29-11.62-2.78-14.4a29.63 29.63 0 0 1 2.27-6.32s9.61 19.71 10.11 21.23c.5 1.52 1.52 7.83 2 9.85.48 2.02 3.29-.76 4.3-2 1.01-1.24 4.8-6.57 4-10.11-.8-3.54-3-9.85-3-9.85l3.77 5a.562.562 0 0 0 .993-.089.56.56 0 0 0 .007-.401c-.71-2.43-1.67-5.65-2-6.26-.51-1-.76-4.3-2.78-7.07-2.02-2.77-7.58-.26-7.58-.26l-4.3-13.64s7.84-25.77 6.32-34.37c-1.52-8.6-2.27-14.9-1.77-16.67.5-1.77 10.11-28.43 10.11-34s.25-18.95-2.78-26.28a126.232 126.232 0 0 0-7.08-14.14L325.68 287Z"/>
  <path fill="#263238" d="M354.34 460.06h-.26a6.009 6.009 0 0 1-4.83-2.86c-1.71-2.94-1-6.3-.26-9.55l.2-.92a12.89 12.89 0 0 0-.18-6.31c-.11-.5-.22-1-.33-1.58-.52-2.9 1.28-12.35 1.79-13.89.578-3.337.989-6.702 1.23-10.08-1.09-1.85-12.64-21.5-14.08-24.14-1.44-2.64-3.85-12.29-4.07-13.2a140.004 140.004 0 0 1-9.37-25.53c-3.72-14.41-3.34-35.94-2.79-41.74.5-5.27 3.76-23.11 3.8-23.29l.07-.42h.43l44.24 1.27.14.24a129.016 129.016 0 0 1 7.11 14.21c2.87 6.94 2.84 19.32 2.82 25.27v1.2c0 4.6-6.32 23-9 30.82-.6 1.73-1 3-1.12 3.31-.26.9-.37 4.25 1.78 16.45 1.48 8.36-5.58 32.12-6.28 34.45l4.08 13c1.5-.58 5.8-1.94 7.67.63a16.163 16.163 0 0 1 2.42 5.78c.099.467.236.925.41 1.37.25.51.93 2.64 2 6.34a1.047 1.047 0 0 1-.532 1.247 1.053 1.053 0 0 1-1.318-.317l-1.89-2.49c.71 2.13 1.6 5 2 7 .89 4.17-3.94 10.27-4.14 10.52-.2.25-2.64 3.24-4.21 2.9a1.279 1.279 0 0 1-1-1.07c-.22-.88-.53-2.54-.86-4.3-.41-2.2-.88-4.68-1.15-5.51-.38-1.13-6.22-13.22-9.63-20.23a25.294 25.294 0 0 0-1.79 5.25c-.28 1.55.49 4.54 1.31 7.71a64.232 64.232 0 0 1 1.47 6.53 14.179 14.179 0 0 1-2.86 10.72 3.711 3.711 0 0 1-3.02 1.21Zm-28.25-172.54c-.5 2.74-3.25 18-3.7 22.79-.55 5.75-.93 27.1 2.76 41.39a139.008 139.008 0 0 0 9.31 25.42v.1c0 .11 2.53 10.33 4 13 1.47 2.67 14 24 14.14 24.25l.08.13v.16c0 .37-.77 8.92-1.29 10.48-.52 1.56-2.24 10.69-1.75 13.39.1.55.21 1.06.31 1.55.615 2.194.68 4.505.19 6.73l-.2.92c-.71 3.21-1.37 6.23.14 8.83a4.934 4.934 0 0 0 4 2.37 2.866 2.866 0 0 0 2.48-.89 13.206 13.206 0 0 0 2.7-10c-.31-2-.89-4.26-1.45-6.43-.85-3.28-1.65-6.37-1.33-8.14a28.821 28.821 0 0 1 2.32-6.45l.45-.91.44.91c.4.81 9.63 19.76 10.14 21.29.29.89.74 3.31 1.18 5.65.33 1.74.63 3.38.85 4.24.05.2.12.31.2.33.53.11 2.06-1.1 3.22-2.54 1.64-2.06 4.58-6.72 3.94-9.69-.74-3.47-3-9.73-3-9.79l-1.11-3.08 5.75 7.59.58-.19-.48.14c-1.39-4.77-1.81-5.92-1.94-6.18a8.35 8.35 0 0 1-.48-1.57 15.29 15.29 0 0 0-2.26-5.43c-1.75-2.42-6.91-.12-7-.09l-.51.23-4.51-14.33v-.15c.08-.25 7.79-25.75 6.31-34.13-1.67-9.45-2.26-15.14-1.76-16.9.1-.34.51-1.54 1.13-3.35 2.45-7.13 9-26.07 9-30.5v-1.2c0-5.88.05-18.13-2.74-24.88a125.958 125.958 0 0 0-6.91-13.85l-43.2-1.22Z"/>
  <path fill="#263238" d="m368.23 424.47-3.39-10.74s7.84-25.77 6.32-34.37c-1.52-8.6-2.27-14.9-1.77-16.67.5-1.77 9.22-28.5 10.11-34a47.498 47.498 0 0 0-2.78-26.28 126.232 126.232 0 0 0-7.08-14.14l-44-1.27s-3.29 17.94-3.79 23.25c-.5 5.31-1 26.91 2.78 41.56a137.598 137.598 0 0 0 9.37 25.53s2.52 10.36 4 13.14c1.48 2.78 14.15 24.26 14.15 24.26s-.44 5.08-.87 8.2a13.281 13.281 0 0 0 5.92 2.41l2 2s5.8 2.55 9.03-2.88Z"/>
  <path fill="#263238" d="M362.36 428.45a9.177 9.177 0 0 1-3.28-.62l-.15-.1-1.89-1.9a14.002 14.002 0 0 1-6-2.48l-.27-.17.05-.31c.38-2.76.77-7.13.85-8-1.09-1.85-12.64-21.5-14.08-24.14-1.44-2.64-3.85-12.29-4.07-13.2a140.026 140.026 0 0 1-9.34-25.53c-3.72-14.41-3.34-35.94-2.79-41.74.5-5.27 3.76-23.11 3.8-23.29l.07-.42h.43l44.24 1.27.14.24a129.016 129.016 0 0 1 7.11 14.21 48.235 48.235 0 0 1 2.82 26.51c-.71 4.41-6.26 21.85-8.92 30.24-.65 2.05-1.1 3.45-1.2 3.81-.26.9-.37 4.25 1.78 16.45 1.48 8.36-5.58 32.12-6.28 34.45l3.4 10.81-.11.19a7 7 0 0 1-6.31 3.72Zm-2.79-1.5c.7.28 5.33 1.91 8.11-2.54l-3.36-10.68v-.15c.08-.25 7.79-25.75 6.31-34.13-1.67-9.45-2.26-15.14-1.76-16.9.1-.36.55-1.77 1.21-3.83 2.45-7.71 8.18-25.77 8.89-30.1a47.287 47.287 0 0 0-2.75-26 124.817 124.817 0 0 0-6.91-13.85l-43.26-1.25c-.5 2.74-3.25 18-3.7 22.79-.55 5.75-.93 27.1 2.76 41.39a139.008 139.008 0 0 0 9.31 25.42v.1c0 .11 2.53 10.33 4 13 1.47 2.67 14 24 14.14 24.25l.08.13v.16c0 .05-.42 4.8-.83 7.91a12.302 12.302 0 0 0 5.42 2.16h.18l2.16 2.12Z"/>
  <path fill="#fff" d="M361.7 403.64a.49.49 0 0 1-.48-.37c-1.15-4.42-2.72-10.37-3.68-13.66-1.74-6-7.26-21.29-7.32-21.45a.482.482 0 0 1 0-.12l-4.53-45.87-8.39-5.43a.503.503 0 0 1-.15-.69.522.522 0 0 1 .7-.15l8.59 5.56a.505.505 0 0 1 .22.37l4.54 46.05c.38 1.05 5.62 15.63 7.32 21.45 1 3.3 2.53 9.26 3.68 13.69a.497.497 0 0 1-.35.61l-.15.01Zm1.88 7.3a.509.509 0 0 1-.49-.37s-.37-1.48-.94-3.7a.517.517 0 0 1 .375-.625.517.517 0 0 1 .625.375c.57 2.22.94 3.7.94 3.7a.494.494 0 0 1-.053.38.508.508 0 0 1-.307.23l-.15.01Zm-14.91-87.55h-.16a.493.493 0 0 1-.289-.255.5.5 0 0 1-.021-.385c1-2.87 3.09-6.92 6.35-12a.504.504 0 0 1 .521-.279.5.5 0 0 1 .319.809 60.861 60.861 0 0 0-6.24 11.82.5.5 0 0 1-.48.29Zm8.41-15.14a.468.468 0 0 1-.28-.09.497.497 0 0 1-.14-.69c1.43-2.12 2.46-3.55 2.47-3.57a.504.504 0 0 1 .7-.11.504.504 0 0 1 .11.7s-1 1.43-2.45 3.54a.501.501 0 0 1-.41.22Z"/>
  <path fill="#263238" d="M379.5 434.7c-.51-1-.76-4.3-2.78-7.07a3.312 3.312 0 0 0-2.52-1.28c1.72 4.35.12 7.83 1 11.13 1 3.79 1.77 7.07.26 9.85-1.51 2.78-5.31 4.3-5.31 4.3h-.07c.47 2.44 1 5.51 1.33 6.81.51 2 3.29-.76 4.3-2 1.01-1.24 4.8-6.57 4-10.11-.8-3.54-3-9.85-3-9.85l4.38 5.78a.369.369 0 0 0 .628-.073.369.369 0 0 0 .022-.247c-.74-2.46-1.89-6.54-2.24-7.24Z"/>
  <path fill="#263238" d="M372.16 459.67c-.09.01-.18.01-.27 0a1.279 1.279 0 0 1-1-1.07c-.22-.88-.53-2.54-.86-4.29-.16-.86-.32-1.74-.48-2.54l-.1-.5.5-.09s3.62-1.47 5-4.06.75-5.54-.3-9.48a14.317 14.317 0 0 1-.24-4.49 14.573 14.573 0 0 0-.75-6.58l-.3-.76.81.07a3.792 3.792 0 0 1 2.88 1.48 16.163 16.163 0 0 1 2.42 5.78c.099.467.236.925.41 1.37.27.56 1 3 2.28 7.31a.873.873 0 0 1-.451 1.011.87.87 0 0 1-1.079-.251l-2.49-3.29c.71 2.13 1.6 5 2 7 .89 4.17-3.94 10.27-4.14 10.52-.2.25-2.29 2.86-3.84 2.86Zm-1.51-7.67c.13.69.27 1.42.4 2.14.33 1.73.63 3.38.85 4.23.05.2.12.31.2.33.53.11 2.06-1.1 3.22-2.54 1.64-2.06 4.58-6.72 3.94-9.69-.74-3.47-3-9.73-3-9.79l-.82-2.29a10.265 10.265 0 0 0 .26 3c1.07 4 1.77 7.35.2 10.22-1.35 2.39-4.28 3.91-5.25 4.39Zm4.79-18 5.62 7.41c-1.05-3.65-1.78-6-2-6.45a8.35 8.35 0 0 1-.48-1.57 15.29 15.29 0 0 0-2.26-5.43A2.442 2.442 0 0 0 375 427c.552 2.007.729 4.099.52 6.17-.06.26-.07.53-.08.83Zm-15.59 14.64c-.37 1.2-.85 2.68-1.32 4-1 2.78-4.3 3-6.57.51a10.56 10.56 0 0 1-2.28-6.32c-.76 3.54-1.77 7.07 0 10.11 1.77 3.04 6.07 3.28 7.33 1.51a13.835 13.835 0 0 0 2.84-9.81Z"/>
  <path fill="#263238" d="M354.34 460.06h-.26a6 6 0 0 1-4.83-2.86c-1.71-2.94-1-6.3-.26-9.55l1.18-5.48v4.67c.051 2.18.805 4.284 2.15 6 .425.553.988.985 1.632 1.253a3.991 3.991 0 0 0 2.038.277 2.77 2.77 0 0 0 2.06-1.87c.4-1.1.84-2.44 1.32-4l.71-2.3.26 2.4a14.29 14.29 0 0 1-2.93 10.15 3.718 3.718 0 0 1-3.07 1.31Zm-4.75-10.43c-.5 2.54-.71 4.94.52 7.05a4.934 4.934 0 0 0 4 2.37 2.864 2.864 0 0 0 2.48-.89 14.366 14.366 0 0 0 2.69-6.18l-.29.83a3.768 3.768 0 0 1-2.81 2.51 5.007 5.007 0 0 1-4.61-1.84 9.488 9.488 0 0 1-1.98-3.85Z"/>
  <path fill="#FFD050" d="M321.91 224.87s-3.84 1.34-3.68 1.84c.16.5-6.13 32-6.13 32s-4.47 11.6-4 15.74c.47 4.14 4 9.11 7.95 9.11a6.999 6.999 0 0 0 6.29-3.64c.83-1.16 3.65-6.63 3.65-6.63s-1 10.44-1.33 11.43c-.33.99-2 3.64-1.16 4.47a13.909 13.909 0 0 0 4.31 2.49 107.355 107.355 0 0 0 25.34 2.15c11.27-.66 18.06-3.64 18.06-3.64.372-1.241.817-2.46 1.33-3.65.33-.5 1-1.32 1-1.32s10.6-1.16 11.26-1.83c.66-.67 2.49-3.47 2.32-7.95-.17-4.48 1.49-43.23.67-44.06a33.826 33.826 0 0 0-4.71-2.8l-19.19-10.73-28.62 3.76-13.36 3.26Z"/>
  <path fill="#263238" d="M349.2 294.41a112.544 112.544 0 0 1-21.5-2.28 14.393 14.393 0 0 1-4.52-2.61c-.87-.87 0-2.63.62-4 .158-.326.298-.659.42-1 .18-.56.66-4.91 1-8.76-.88 1.66-2 3.72-2.49 4.41l-.15.21a7.358 7.358 0 0 1-6.55 3.64c-4.18 0-7.91-5-8.45-9.55-.51-4.22 3.82-15.5 4-16 2.39-12 6-30.31 6.09-31.71-.11-.39 0-1 4-2.39h.05l13.38-3.29 28.67-3.76a.461.461 0 0 1 .31.06l19.19 10.72a32.169 32.169 0 0 1 4.82 2.89c.51.51.56 4.57-.17 28.95-.22 7.4-.41 13.8-.35 15.44.18 4.64-1.72 7.58-2.46 8.33s-7.31 1.49-11.36 1.94c-.2.26-.61.78-.84 1.13a31.57 31.57 0 0 0-1.26 3.52.532.532 0 0 1-.28.3c-.28.13-7 3-18.23 3.69-1.25.09-2.59.12-3.94.12ZM326 272.76h.14a.513.513 0 0 1 .36.53c-.11 1.07-1 10.52-1.35 11.54-.1.27-.27.64-.46 1.06-.36.75-1.2 2.53-.82 2.9a13.483 13.483 0 0 0 4.09 2.36 106.69 106.69 0 0 0 25.18 2.13 59.007 59.007 0 0 0 17.68-3.52c.353-1.213.79-2.399 1.31-3.55.34-.5 1-1.32 1-1.36a.482.482 0 0 1 .34-.18c4.94-.54 10.4-1.33 11-1.7.59-.59 2.3-3.3 2.14-7.56-.06-1.68.13-8.09.35-15.51.32-10.67.8-26.72.4-28.28a35.313 35.313 0 0 0-4.52-2.65l-19.06-10.65-28.45 3.73-13.31 3.28a16.665 16.665 0 0 0-3.34 1.48c-.1 1-.91 5.9-6.12 31.95-.07.2-4.44 11.61-4 15.58.44 3.97 3.85 8.67 7.46 8.67a6.39 6.39 0 0 0 5.73-3.21l.16-.23c.79-1.11 3.58-6.51 3.6-6.56a.496.496 0 0 1 .49-.25Zm-7.31-46.2a.74.74 0 0 1 0 .23.356.356 0 0 0 .02-.23h-.02Z"/>
  <path fill="#263238" d="M326 243.63c-.84-3.93-4.25-10.21-4.28-10.28l.88-.47c.14.26 3.51 6.47 4.38 10.54l-.98.21Zm-5 21.01a.53.53 0 0 1-.41-.2c-1.58-2.21-5.87-2.78-5.92-2.79a.496.496 0 0 1-.422-.369.497.497 0 0 1 .05-.382.496.496 0 0 1 .306-.236.518.518 0 0 1 .196-.013c.19 0 4.77.63 6.61 3.19a.498.498 0 0 1 .015.558.494.494 0 0 1-.135.142.513.513 0 0 1-.29.1Zm1.3-1.06a.5.5 0 0 1-.46-.29 6.673 6.673 0 0 0-2.47-2 .498.498 0 0 1-.215-.675.498.498 0 0 1 .675-.215c.25.13 2.39 1.27 2.93 2.46a.51.51 0 0 1-.25.66.518.518 0 0 1-.21.06Z"/>
  <path fill="#263238" d="M326 273.76a.485.485 0 0 1-.17 0 .489.489 0 0 1-.3-.64l.92-2.62-2.69-5.53-1.9.67a.48.48 0 0 1-.45-.05s-3.84-2.53-6.42-2.08c-2.58.45-4.27 3.84-4.28 3.87a.502.502 0 0 1-.924-.057.504.504 0 0 1 .024-.383c.08-.16 2-3.88 5-4.41 2.63-.47 6.05 1.53 6.94 2.09l2.09-.75a.511.511 0 0 1 .62.26l3 6.12a.487.487 0 0 1 0 .39l-1 2.82a.51.51 0 0 1-.46.3Zm50.94-30.64a.435.435 0 0 1-.19 0 .508.508 0 0 1-.27-.66c.79-1.84 3.28-7.48 3.28-7.48l.92.41s-2.49 5.63-3.28 7.47a.494.494 0 0 1-.46.26Zm-3.38 42.57a.492.492 0 0 1-.34-.14l-9.64-9.1a.486.486 0 0 1-.109-.163.488.488 0 0 1 0-.384.497.497 0 0 1 .269-.272.496.496 0 0 1 .54.109l9.64 9.1a.5.5 0 0 1-.34.87l-.02-.02Zm-3.78-1.35a.497.497 0 0 1-.23 0l-9.65-5a.498.498 0 0 1-.215-.675.498.498 0 0 1 .675-.215l9.65 5a.496.496 0 0 1 .248.559.494.494 0 0 1-.174.272.493.493 0 0 1-.304.109v-.05Zm-37.25 8.28a.49.49 0 0 1-.49-.45.5.5 0 0 1 .44-.55l25.52-2.75a.494.494 0 0 1 .55.44.499.499 0 0 1-.44.55l-25.52 2.76h-.06Zm18.11-30.01h-.05a.494.494 0 0 1-.432-.354.5.5 0 0 1-.018-.196c.17-1.53 3.08-30.06 3.11-30.35a.508.508 0 0 1 .355-.431c.063-.019.129-.026.195-.019a.505.505 0 0 1 .431.355c.019.063.026.129.019.195 0 .29-2.93 28.82-3.1 30.36a.508.508 0 0 1-.51.44Zm-2.41 20.7h-.05a.494.494 0 0 1-.432-.354.5.5 0 0 1-.018-.196l.86-9.48a.512.512 0 0 1 .54-.45.5.5 0 0 1 .46.54l-.87 9.48a.503.503 0 0 1-.49.46Z"/>
  <path fill="#fff" d="m365.7 213.04-2.54 6.43-8.37 9.56-7.47-9.86.61-12.46 9.4 8.57 8.37-2.24Z"/>
  <path fill="#263238" d="m354.76 229.83-7.95-10.5v-.18l.67-13.52 10 9.1 9.06-2.43-3 7.5-8.78 10.03ZM347.83 219l7 9.23 7.91-9 2.14-5.42-7.67 2.06-8.82-8-.56 11.13Z"/>
  <path fill="#263238" d="M358.09 173.58s-14.73 5.33-16.76 9.52a64.82 64.82 0 0 0-3.93 12.31c0 .51-7 3.31-8.38 5.46-1.38 2.15.12 8.51 0 10.29-.12 1.78-6.6 3.81-7.24 7.74a12.786 12.786 0 0 0 .13 6l11.3-1.78s7.36 2.92 11.3 1.4c3.94-1.52 4.31-9.14 4.06-11.68-.25-2.54-.64-6.1-.64-6.1l5.21-14.74 11.8-3.56 7.49 7-6.88 18.08s-2.17 4.39-1.79 5.53c.38 1.14 3.85 2.29 3.85 2.29l15.49 7.24a8.474 8.474 0 0 0 .38-3.68c-.25-2-3.56-6.35-3.56-7.62 0-1.27 4.32-6.22 2.29-10.66-2.03-4.44-4.19-6.86-5.33-9.14-1.14-2.28 1-6.61-1.27-12.19-2.27-5.58-9.78-10.41-11.81-11.55-2.03-1.14-5.71-.16-5.71-.16Z"/>
  <path fill="#263238" d="m383.37 229.23-16-7.46c-.57-.19-3.68-1.28-4.11-2.59-.43-1.31 1.28-4.84 1.82-5.91l6.74-17.72-7-6.56-11.29 3.4-5.08 14.38c.07.63.4 3.71.62 6 .22 2.13.1 10.46-4.37 12.19-3.83 1.48-10.49-.95-11.54-1.35l-11.57 1.82-.14-.38a13.177 13.177 0 0 1-.15-6.22c.41-2.53 2.91-4.26 4.93-5.65 1.06-.73 2.26-1.56 2.3-2a19.29 19.29 0 0 0-.22-2.64c-.34-2.78-.76-6.24.3-7.88.94-1.46 4-3.08 6.3-4.26a21.873 21.873 0 0 0 2-1.12 65.395 65.395 0 0 1 4-12.34c2.1-4.32 16.43-9.55 17-9.77.15 0 3.9-1.06 6.09.17.09 0 9.38 5.33 12 11.8a17.851 17.851 0 0 1 1 8.62 7.473 7.473 0 0 0 .23 3.53A29.51 29.51 0 0 0 379 200a44.34 44.34 0 0 1 3.64 6.37c1.57 3.42-.36 7.07-1.51 9.25a7.331 7.331 0 0 0-.73 1.62 12.216 12.216 0 0 0 1.48 3 15.205 15.205 0 0 1 2.07 4.54 8.738 8.738 0 0 1-.41 3.92l-.17.53Zm-18.29-41.36 7.94 7.41-7 18.39c-1 2.06-2 4.61-1.79 5.19.21.58 2 1.46 3.54 2l15 7a8.066 8.066 0 0 0 .19-2.92 15.473 15.473 0 0 0-2-4.16c-1-1.73-1.61-2.82-1.61-3.52a5.6 5.6 0 0 1 .85-2.08c1.13-2.15 2.84-5.4 1.48-8.38a43.667 43.667 0 0 0-3.56-6.23 29.854 29.854 0 0 1-1.76-2.89 8.16 8.16 0 0 1-.32-4 17.056 17.056 0 0 0-1-8.17c-2.52-6.15-11.5-11.26-11.59-11.31-1.76-1-5.05-.15-5.32-.08-.61.22-14.57 5.37-16.46 9.26a64.234 64.234 0 0 0-3.88 12.11c0 .46-.4.69-2.54 1.8s-5.12 2.67-5.92 3.92c-.8 1.25-.43 4.87-.15 7.21.147.936.224 1.882.23 2.83-.07 1-1.25 1.78-2.74 2.81-1.85 1.28-4.16 2.87-4.51 5a14.333 14.333 0 0 0 0 5.32l11-1.73.13.05c.07 0 7.23 2.83 10.94 1.4 3.71-1.43 4-8.67 3.74-11.16-.26-2.49-.63-6.09-.63-6.09v-.22l5.29-15 12.45-3.76Z"/>
  <path fill="#fff" d="M363.42 183.86s-11.42 5.08-12.31 7.49c-.89 2.41-3.3 13.59-3.18 15.36.12 1.77 7.75 10.92 9.27 11.18 1.52.26 9.35-4.28 10.75-5.3 1.4-1.02 6-16.29 5.88-18.7-.12-2.41-9.14-9.89-10.41-10.03Z"/>
  <path fill="#263238" d="M357.3 218.39h-.18c-1.76-.29-9.54-9.64-9.69-11.63-.15-1.99 2.35-13.25 3.21-15.57.93-2.54 11.39-7.25 12.58-7.77l.12-.06h.13c1.42.14 10.71 7.68 10.86 10.5.13 2.49-4.5 18-6.09 19.13-1.01.75-8.79 5.4-10.94 5.4Zm6.17-34c-4.36 2-11.31 5.54-11.89 7.14-.91 2.45-3.27 13.46-3.15 15.15.11 1.53 7.47 10.44 8.85 10.71 1.16.2 8.58-3.9 10.37-5.2 1.14-.86 5.81-15.89 5.68-18.27-.11-2.09-8.48-9-9.86-9.53Z"/>
  <path fill="#263238" d="M374.19 196.14c-4.57-1.37-9.39-9-10.8-11.34-1.37 1.9-5.69 7.26-12.27 9l-.26-1c7.51-2 12.09-9.18 12.14-9.25l.45-.72.41.74c.05.1 5.69 10.09 10.62 11.57l-.29 1Z"/>
  <path fill="#263238" d="m348.23 194.6-.19-1c3.72-.75 14.95-10.05 15.06-10.14l.64.77c-.47.41-11.54 9.57-15.51 10.37Zm12.7 13.49a3.505 3.505 0 0 1-.93-.09.519.519 0 1 1 .28-1 3.99 3.99 0 0 0 3.11-.8.503.503 0 0 1 .676.108.497.497 0 0 1-.066.682 5.506 5.506 0 0 1-3.07 1.1Zm-.7 2.81a6.495 6.495 0 0 1-4.82-2.23.501.501 0 0 1 .462-.778.497.497 0 0 1 .328.168 5.43 5.43 0 0 0 6.64 1.24.5.5 0 0 1 .548.099.497.497 0 0 1 .119.545.507.507 0 0 1-.267.276 7.35 7.35 0 0 1-3.01.68Zm-.11-14.22a.494.494 0 0 1-.28-.09s-3-2-5.73-.72a.499.499 0 0 1-.665-.245.499.499 0 0 1 .245-.665c3.27-1.49 6.57.71 6.71.8a.497.497 0 0 1 .13.7.5.5 0 0 1-.177.162.5.5 0 0 1-.233.058Zm11.05 1.01a.54.54 0 0 1-.36-.14c-1.4-1.4-4.63-.16-4.67-.15a.499.499 0 0 1-.61-.663.499.499 0 0 1 .25-.267c.15-.06 3.88-1.49 5.74.37a.512.512 0 0 1 0 .71.54.54 0 0 1-.35.14ZM357.83 200c-.08.77-.63 1.34-1.22 1.28a1.28 1.28 0 0 1-.93-1.51c.09-.76.63-1.33 1.23-1.27a1.266 1.266 0 0 1 .92 1.5Zm10.03 1.5a1.12 1.12 0 1 1-2.15-.23c.08-.77.63-1.34 1.22-1.28a1.282 1.282 0 0 1 .93 1.51Z"/>
  <path fill="#FFD050" d="m343.13 224.7 4.49 7.92 5.68-5.68-5.98-7.77-4.19 5.53Z"/>
  <path fill="#263238" d="M347.62 233.12h-.07a.532.532 0 0 1-.37-.25L342.7 225a.496.496 0 0 1 0-.55l4.19-5.53a.536.536 0 0 1 .4-.2.469.469 0 0 1 .39.2l6 7.77a.49.49 0 0 1 0 .66L348 233a.51.51 0 0 1-.177.1.518.518 0 0 1-.203.02Zm-3.89-8.38 4 7.06 4.9-4.9-5.31-6.9-3.59 4.74Z"/>
  <path fill="#FFD050" d="m356.88 227.24 4.04 5.83 6.69-11.76-3.7-3.49-7.03 9.42Z"/>
  <path fill="#263238" d="M360.92 233.57a.504.504 0 0 1-.41-.21l-4-5.83a.534.534 0 0 1 0-.59l7-9.41a.461.461 0 0 1 .36-.2.46.46 0 0 1 .205.02.464.464 0 0 1 .175.11L368 221a.498.498 0 0 1 .1.61l-6.7 11.76a.492.492 0 0 1-.41.25l-.07-.05Zm-3.42-6.32 3.38 4.88 6.1-10.72-3-2.84-6.48 8.68Z"/>
  <path fill="#fff" d="M337.97 266.75h-8.79l-1.1-20.34h10.99l-1.1 20.34Z"/>
  <path fill="#263238" d="M338.44 267.25h-9.73l-1.16-21.34h12l-1.11 21.34Zm-8.79-1h7.84l1.05-19.34h-9.93l1.04 19.34Z"/>
  <path fill="#263238" d="M340.03 244.68h-13.11v3.08h13.11v-3.08Z"/>
  <path fill="#263238" d="M340.53 248.26h-14.11v-4.08h14.11v4.08Zm-13.11-1h12.11v-2.08h-12.11v2.08Z"/>
  <path fill="#263238" d="M338.4 243.23h-9.64v1.45h9.64v-1.45Z"/>
  <path fill="#263238" d="M338.89 245.18h-10.63v-2.45h10.63v2.45Zm-9.63-1h8.63v-.45h-8.63v.45Z"/>
  <path fill="#fff" d="M327.66 268.57v.12a4.105 4.105 0 0 1-3.57 2.75 3.135 3.135 0 0 1-2.41-.78 3.812 3.812 0 0 1-1-2.37 4.937 4.937 0 0 1 1.42-4.54c.42-.5 2-1.79 2.12-2.43l.89-7s8.72-2 9.47-1.89a1.006 1.006 0 0 1 .739.518 1.004 1.004 0 0 1 .021.902c-.19.57-1.51.85-1.8.94-.29.09-4.55 1.14-4.55 1.14l-1.51 1.8a18.63 18.63 0 0 1 2.27-.95c.29 0 5-.66 5.59-.75a1.009 1.009 0 0 1 .874.443.994.994 0 0 1 .076.977c-.38.76-.66.94-.95.94-.29 0-5 .86-5 .86l-2.65 2.27s3.6-1.14 4-1.14c.4 0 3.69-.09 3.79.48a1.19 1.19 0 0 1-.76 1.42c-.66.19-3.22.57-3.22.57l-2.85 1.51h2.75s2.66.86 3.22 1 1 .38.19 1.23-6.65.17-6.65.17-.4 1.35-.5 1.81Z"/>
  <path fill="#263238" d="M323.75 272a3.498 3.498 0 0 1-2.45-.93 4.219 4.219 0 0 1-1.17-2.68 5.42 5.42 0 0 1 1.54-4.92c.13-.15.37-.39.65-.65.52-.436.975-.944 1.35-1.51l.94-7.37.34-.08c2.06-.47 8.85-2 9.65-1.9a1.362 1.362 0 0 1 1 .63 1.748 1.748 0 0 1 .15 1.45c-.25.73-1.36 1-2 1.21l-.16.05c-.27.09-3.45.87-4.43 1.11a1.46 1.46 0 0 1 .51-.13c.34 0 4.91-.65 5.51-.75a1.51 1.51 0 0 1 1.48 2.14c-.31.61-.71 1.23-1.4 1.23-.26 0-3 .5-4.8.82l-.73.62a12.894 12.894 0 0 1 1.84-.45h.15c3.35 0 4 .28 4.13.9a1.673 1.673 0 0 1-1.11 2c-.63.18-2.74.5-3.2.57l-1 .53h.91c1 .34 2.76.86 3.15.93a1.127 1.127 0 0 1 1 .66c.19.53-.2 1.05-.5 1.4-.84.94-5.23.54-6.66.38 0 .17-.07.38-.12.59-.05.21-.13.67-.18.85a.858.858 0 0 1-.05.18 4.605 4.605 0 0 1-4 3.08l-.34.04Zm1.76-17.24-.85 6.68c-.07.58-.73 1.24-1.65 2.11-.203.18-.396.371-.58.57a4.443 4.443 0 0 0-1.3 4.16 3.3 3.3 0 0 0 .86 2.07 2.66 2.66 0 0 0 2 .64 3.611 3.611 0 0 0 3.14-2.42l.51.05-.49-.12c0-.17.11-.5.17-.82.27-1.32.31-1.48.78-1.43 2.6.3 5.8.37 6.23 0 .104-.112.195-.236.27-.37h-.17c-.55-.1-2.72-.79-3.22-1h-4.66l4.76-2.51c.71-.1 2.64-.4 3.16-.55a.646.646 0 0 0 .42-.71 11.367 11.367 0 0 0-3.15-.21h-.16c-.27 0-2.16.58-3.83 1.11l-2.34.74 4.62-4h.13c1.79-.33 4.83-.86 5.11-.86.06 0 .24-.15.5-.68a.44.44 0 0 0-.05-.48.488.488 0 0 0-.158-.155.482.482 0 0 0-.212-.065c-.29.05-5.29.76-5.67.76-.17 0-1.21.5-2.06.9l-2.08 1 3.11-3.7h.15c1.63-.4 4.3-1.06 4.52-1.13l.2-.06c1.06-.3 1.25-.5 1.28-.57a.746.746 0 0 0 0-.59.382.382 0 0 0-.31-.18c-.49-.05-4.96.86-8.98 1.77v.05Z"/>
  <path fill="#FFD050" d="m373.62 264.49-1.88 2.51s0 15 .59 16.25 5.18 4.71 7.65 4.71c2.47 0 7.31-5.65 7.54-6.59.23-.94-6.12-19.2-6-19.67.12-.47-.58-1.06-1.41-1.06s-6.49 3.85-6.49 3.85Z"/>
  <path fill="#263238" d="M380 288.43c-2.72 0-7.45-3.55-8.11-5-.66-1.45-.63-13.95-.63-16.46a.453.453 0 0 1 .1-.3l1.88-2.48.12-.11c2.16-1.48 5.91-4 6.76-4a2.165 2.165 0 0 1 1.67.75 1.124 1.124 0 0 1 .25.84c.1.55 1.18 3.85 2.23 7.05 3.16 9.66 3.9 12.15 3.76 12.71-.32 1.23-5.31 7-8.03 7Zm-7.74-21.29c0 7.15.19 15.1.54 15.88.54 1.18 5 4.41 7.2 4.41s6.8-5.29 7.06-6.21c0-.72-2.25-7.6-3.74-12.16-2.28-6.94-2.34-7.24-2.27-7.51a1.07 1.07 0 0 0-.93-.44 42.785 42.785 0 0 0-6.13 3.75l-1.73 2.28Z"/>
  <path fill="#fff" d="m380.15 255.56.3 6.34s-.35 2.59-2 3.65a8.23 8.23 0 0 1-3.89 1.06l-1.06-2.12-1.64-1.65 8.29-7.28Z"/>
  <path fill="#263238" d="M374.56 267.11h-.3l-1.17-2.32-2-2 9.47-8.32.35 7.38c0 .2-.41 2.92-2.23 4.1a8.666 8.666 0 0 1-4.12 1.16Zm-2-4.24 1.36 1.4.92 1.83a7.368 7.368 0 0 0 3.31-1c1.44-.92 1.78-3.27 1.78-3.3l-.26-5.21-7.11 6.28Z"/>
  <path fill="#263238" d="m382.06 246.94-11.93-2.49-7.47 19.93 10.09 1.83 9.31-19.27Z"/>
  <path fill="#263238" d="m373 266.77-11-2 7.83-20.88 13 2.71-9.83 20.17Zm-9.66-2.77 9.12 1.66 8.87-18.35-10.88-2.31-7.11 19Z"/>
  <path fill="#fff" d="M380.42 252s-8 .36-8.09 1c-.09.64.18 1.42.45 1.51.27.09 7.37 1.07 7.37 1.07s2-.45 1.86-2.05a1.496 1.496 0 0 0-.981-1.44 1.505 1.505 0 0 0-.609-.09Z"/>
  <path fill="#263238" d="M380.17 256.07h-.09c-2.67-.36-7.19-1-7.46-1.08-.63-.21-.88-1.36-.78-2.06.06-.43.15-1 8.55-1.4a2.161 2.161 0 0 1 1.48.5 2.061 2.061 0 0 1 .64 1.48 2.672 2.672 0 0 1-2.25 2.55l-.09.01ZM373 254c.61.11 4.58.67 7.12 1 .32-.09 1.45-.5 1.4-1.51a.995.995 0 0 0-.673-.948 1.003 1.003 0 0 0-.407-.052 49.82 49.82 0 0 0-7.62.75c.002.264.064.524.18.76Z"/>
  <path fill="#fff" d="M375.89 255.11s-7-.8-7.37-.35c-.37.45-.71 1.06.35 1.51a81.764 81.764 0 0 0 8 2.22 3.36 3.36 0 0 0 2.49-1.33 1.711 1.711 0 0 0 .18-1.43l-3.65-.62Z"/>
  <path fill="#263238" d="M376.86 259a75.195 75.195 0 0 1-8.18-2.26 1.527 1.527 0 0 1-1-1 1.577 1.577 0 0 1 .44-1.33c.18-.23.52-.66 7.81.17l3.89.67.11.22a2.117 2.117 0 0 1-.17 1.87 3.846 3.846 0 0 1-2.9 1.66Zm-8-3.83c-.19.26-.18.35-.18.37 0 .02.11.15.4.28 1.12.46 7.28 2.14 7.81 2.18a2.877 2.877 0 0 0 2-1.06 1.66 1.66 0 0 0 .21-.76l-3.29-.56a46.164 46.164 0 0 0-6.97-.46l.02.01Z"/>
  <path fill="#fff" d="M372.25 257.42s-5.33-1.06-5.6-.53c-.27.53-.35 1.42.18 1.78.53.36 7.64 2.3 8.08 2.48.44.18 1.51-.35 1.86-1.06a2.442 2.442 0 0 0 .09-1.6l-4.61-1.07Z"/>
  <path fill="#263238" d="M375.11 261.69a1.232 1.232 0 0 1-.39-.07c-.13-.06-1.13-.35-2.11-.63a50.584 50.584 0 0 1-6.06-1.91 1.902 1.902 0 0 1-.35-2.41c.17-.33.44-.88 6.14.26l4.9 1.14.08.27c.2.66.157 1.369-.12 2a2.67 2.67 0 0 1-2.09 1.35Zm-8.11-4.44c-.14.37-.15.86.06 1 .39.22 3.91 1.24 5.79 1.78 1.37.4 2 .59 2.21.66a1.48 1.48 0 0 0 1.083-.586 1.47 1.47 0 0 0 .257-1.204l-4.3-1a25.774 25.774 0 0 0-5.1-.65Z"/>
  <path fill="#fff" d="M372.42 260.53s-4-.8-4.17-.35c-.17.45-.27 1.42.53 1.68s5.42 2.13 6.22 1.6c.8-.53.53-1.95.53-1.95l-3.11-.98Z"/>
  <path fill="#263238" d="M374.53 264.05a19.326 19.326 0 0 1-5.29-1.49l-.62-.22a1.374 1.374 0 0 1-.83-.74 2.127 2.127 0 0 1 0-1.61c.13-.35.33-.83 4.73.05h.05l3.4 1.07v.3c0 .17.3 1.76-.74 2.46-.214.12-.455.182-.7.18Zm-5.87-3.51c-.06.206-.06.424 0 .63a.392.392 0 0 0 .25.22l.65.23c3.73 1.38 4.86 1.53 5.15 1.42.29-.11.35-.77.33-1.15l-2.74-.89a21.048 21.048 0 0 0-3.64-.46Zm27.62-116.87h36.27c1.628 0 3.19.647 4.342 1.798a6.144 6.144 0 0 1 1.798 4.342v24.58c0 1.628-.647 3.19-1.798 4.342a6.144 6.144 0 0 1-4.342 1.798h-21.3l-9.74 13.72v-13.72h-5.23a6.147 6.147 0 0 1-5.682-3.788 6.145 6.145 0 0 1-.468-2.352v-24.58a6.145 6.145 0 0 1 1.802-4.345 6.128 6.128 0 0 1 4.348-1.795Z"/>
  <path fill="#263238" d="M401.51 194.75a.42.42 0 0 1-.15 0 .488.488 0 0 1-.35-.47V181h-4.73a6.65 6.65 0 0 1-6.65-6.64v-24.55a6.651 6.651 0 0 1 6.65-6.64h36.27a6.649 6.649 0 0 1 6.64 6.64v24.58a6.649 6.649 0 0 1-6.64 6.64h-21l-9.59 13.51a.527.527 0 0 1-.45.21Zm-5.23-50.58a5.653 5.653 0 0 0-3.992 1.651 5.654 5.654 0 0 0-1.658 3.989v24.58a5.654 5.654 0 0 0 1.658 3.989 5.653 5.653 0 0 0 3.992 1.651h5.23c.133 0 .26.053.354.146a.504.504 0 0 1 .146.354v12.15l8.84-12.44a.495.495 0 0 1 .4-.21h21.3a5.652 5.652 0 0 0 5.64-5.64v-24.58a5.652 5.652 0 0 0-5.64-5.64h-36.27Z"/>
  <path fill="#FFD050" d="M412.12 174.43H412a3.488 3.488 0 0 1-1.541-.43 3.488 3.488 0 0 1-1.189-1.07l-6.59-9.45a3.504 3.504 0 0 1-.65-2.653 3.497 3.497 0 0 1 4.126-2.876 3.495 3.495 0 0 1 2.264 1.529l4 5.67 13.86-16.85a3.5 3.5 0 0 1 5.41 4.44l-16.79 20.42a3.508 3.508 0 0 1-2.78 1.27Z"/>
  <path fill="#263238" d="M428.91 147a3.444 3.444 0 0 1 2.22.8 3.488 3.488 0 0 1 .49 4.92l-16.79 20.42a3.516 3.516 0 0 1-2.71 1.28H412a3.488 3.488 0 0 1-1.541-.43 3.488 3.488 0 0 1-1.189-1.07l-6.59-9.45a3.504 3.504 0 0 1-.65-2.653 3.484 3.484 0 0 1 1.453-2.312 3.498 3.498 0 0 1 4.937.965l4 5.67 13.86-16.85a3.444 3.444 0 0 1 1.205-.946 3.451 3.451 0 0 1 1.495-.334m0-2a5.486 5.486 0 0 0-4.25 2l-12.18 14.81-2.44-3.5a5.505 5.505 0 0 0-7.462-1.093 5.502 5.502 0 0 0-1.538 7.383l6.59 9.46a5.538 5.538 0 0 0 4.29 2.35h.22a5.513 5.513 0 0 0 2.349-.523 5.51 5.51 0 0 0 1.901-1.477l16.7-20.42a5.5 5.5 0 0 0-4.25-9l.07.01ZM142.299 241l-3.08-5.44h-1.32V241h-2.8v-13.96h5.24c1.08 0 2 .193 2.76.58.76.373 1.326.887 1.7 1.54.386.64.58 1.36.58 2.16 0 .92-.267 1.753-.8 2.5-.534.733-1.327 1.24-2.38 1.52l3.34 5.66h-3.24Zm-4.4-7.54h2.34c.76 0 1.326-.18 1.7-.54.373-.373.56-.887.56-1.54 0-.64-.187-1.133-.56-1.48-.374-.36-.94-.54-1.7-.54h-2.34v4.1Zm12.812-4.16v3.5h4.7v2.22h-4.7v3.7h5.3V241h-8.1v-13.98h8.1v2.28h-5.3Zm17.565 1.94a3.278 3.278 0 0 0-1.32-1.34c-.56-.307-1.214-.46-1.96-.46-.827 0-1.56.187-2.2.56-.64.373-1.14.907-1.5 1.6-.36.693-.54 1.493-.54 2.4 0 .933.18 1.747.54 2.44a3.953 3.953 0 0 0 1.54 1.6c.653.373 1.413.56 2.28.56 1.066 0 1.94-.28 2.62-.84.68-.573 1.126-1.367 1.34-2.38h-4.8v-2.14h7.56v2.44a6.57 6.57 0 0 1-1.2 2.7c-.614.827-1.407 1.493-2.38 2-.96.493-2.04.74-3.24.74-1.347 0-2.567-.3-3.66-.9a6.778 6.778 0 0 1-2.56-2.54c-.614-1.08-.92-2.307-.92-3.68 0-1.373.306-2.6.92-3.68a6.598 6.598 0 0 1 2.56-2.54c1.093-.613 2.306-.92 3.64-.92 1.573 0 2.94.387 4.1 1.16 1.16.76 1.96 1.833 2.4 3.22h-3.22Zm8.431-4.2V241h-2.8v-13.96h2.8Zm7.587 14.1c-.974 0-1.854-.167-2.64-.5-.774-.333-1.387-.813-1.84-1.44-.454-.627-.687-1.367-.7-2.22h3c.04.573.24 1.027.6 1.36.373.333.88.5 1.52.5.653 0 1.166-.153 1.54-.46.373-.32.56-.733.56-1.24 0-.413-.127-.753-.38-1.02a2.555 2.555 0 0 0-.96-.62c-.374-.16-.894-.333-1.56-.52-.907-.267-1.647-.527-2.22-.78a4.115 4.115 0 0 1-1.46-1.18c-.4-.533-.6-1.24-.6-2.12 0-.827.206-1.547.62-2.16.413-.613.993-1.08 1.74-1.4.746-.333 1.6-.5 2.56-.5 1.44 0 2.606.353 3.5 1.06.906.693 1.406 1.667 1.5 2.92h-3.08a1.562 1.562 0 0 0-.62-1.18c-.374-.32-.874-.48-1.5-.48-.547 0-.987.14-1.32.42-.32.28-.48.687-.48 1.22 0 .373.12.687.36.94.253.24.56.44.92.6.373.147.893.32 1.56.52.906.267 1.646.533 2.22.8a4.001 4.001 0 0 1 1.48 1.2c.413.533.62 1.233.62 2.1 0 .747-.194 1.44-.58 2.08-.387.64-.954 1.153-1.7 1.54-.747.373-1.634.56-2.66.56Zm16.867-14.1v2.26h-3.72V241h-2.8v-11.7h-3.72v-2.26h10.24Zm4.843 2.26v3.5h4.7v2.22h-4.7v3.7h5.3V241h-8.1v-13.98h8.1v2.28h-5.3Zm15.045 11.7-3.08-5.44h-1.32V241h-2.8v-13.96h5.24c1.08 0 2 .193 2.76.58.76.373 1.326.887 1.7 1.54.386.64.58 1.36.58 2.16 0 .92-.267 1.753-.8 2.5-.534.733-1.327 1.24-2.38 1.52l3.34 5.66h-3.24Zm-4.4-7.54h2.34c.76 0 1.326-.18 1.7-.54.373-.373.56-.887.56-1.54 0-.64-.187-1.133-.56-1.48-.374-.36-.94-.54-1.7-.54h-2.34v4.1Z"/>
</svg>
